<svg width="28" height="32" viewBox="0 0 28 32" fill="none" xmlns="http://www.w3.org/2000/svg">
<path d="M13.998 6.34234C20.5452 6.34234 25.8526 11.489 25.8526 17.8378V26.2342C25.8526 26.5401 25.7273 26.8334 25.5043 27.0496C25.2813 27.2659 24.9788 27.3874 24.6634 27.3874H3.33269C3.01731 27.3874 2.71484 27.2659 2.49182 27.0496C2.26881 26.8334 2.14352 26.5401 2.14352 26.2342V17.8378C2.14352 11.489 7.45093 6.34234 13.998 6.34234ZM12.9575 0H15.0386C15.1174 0 15.193 0.0303732 15.2488 0.0844377C15.3045 0.138502 15.3359 0.211829 15.3359 0.288288V3.74775C15.3359 3.82421 15.3045 3.89753 15.2488 3.9516C15.193 4.00566 15.1174 4.03604 15.0386 4.03604H12.9575C12.8787 4.03604 12.8031 4.00566 12.7473 3.9516C12.6916 3.89753 12.6602 3.82421 12.6602 3.74775V0.288288C12.6602 0.211829 12.6916 0.138502 12.7473 0.0844377C12.8031 0.0303732 12.8787 0 12.9575 0ZM1.55823 4.45622C1.58584 4.42941 1.61863 4.40815 1.65472 4.39364C1.69081 4.37913 1.7295 4.37167 1.76856 4.37167C1.80763 4.37167 1.84632 4.37913 1.88241 4.39364C1.9185 4.40815 1.95129 4.42941 1.9789 4.45622L4.50142 6.90234C4.55713 6.9564 4.58843 7.0297 4.58843 7.10613C4.58843 7.18255 4.55713 7.25585 4.50142 7.30991L3.02983 8.73694C2.97408 8.79096 2.89849 8.82131 2.81968 8.82131C2.74087 8.82131 2.66528 8.79096 2.60953 8.73694L0.087006 6.29081C0.0312951 6.23675 0 6.16345 0 6.08703C0 6.0106 0.0312951 5.9373 0.087006 5.88324L1.5586 4.45622H1.55823ZM26.4416 4.45622L27.9132 5.88324C27.9688 5.93729 28 6.01051 28 6.08685C28 6.16319 27.9688 6.23641 27.9132 6.29045L25.3907 8.7373C25.363 8.7641 25.3303 8.78537 25.2942 8.79987C25.2581 8.81438 25.2194 8.82185 25.1803 8.82185C25.1413 8.82185 25.1026 8.81438 25.0665 8.79987C25.0304 8.78537 24.9976 8.7641 24.97 8.7373L23.4984 7.31027C23.4707 7.2835 23.4488 7.2517 23.4339 7.2167C23.4189 7.18171 23.4112 7.14419 23.4112 7.10631C23.4112 7.06842 23.4189 7.03091 23.4339 6.99591C23.4488 6.96091 23.4707 6.92912 23.4984 6.90234L26.0213 4.45622C26.077 4.40219 26.1526 4.37185 26.2314 4.37185C26.3102 4.37185 26.3858 4.40219 26.4416 4.45622ZM2.10636 29.6937H25.8897C26.2051 29.6937 26.5076 29.8152 26.7306 30.0314C26.9536 30.2477 27.0789 30.541 27.0789 30.8468V31.7117C27.0789 31.7882 27.0476 31.8615 26.9918 31.9156C26.9361 31.9696 26.8605 32 26.7816 32H1.21449C1.13564 32 1.06002 31.9696 1.00427 31.9156C0.948516 31.8615 0.917194 31.7882 0.917194 31.7117V30.8468C0.917194 30.541 1.04248 30.2477 1.26549 30.0314C1.48851 29.8152 1.79098 29.6937 2.10636 29.6937ZM7.60627 18.2703V27.3874H9.9846V18.2703H7.60627Z" fill="#464A63"/>
</svg>
