<svg width="194" height="180" viewBox="0 0 194 180" fill="none" xmlns="http://www.w3.org/2000/svg">
<path opacity="0.8" d="M46.6324 177.827C45.0962 180.104 41.9963 180.715 39.7985 179.067C28.3864 170.51 18.9318 159.585 12.0962 147.022C4.4671 132.999 0.324506 117.347 0.0183029 101.387C-0.2879 85.4267 3.25128 69.6271 10.3369 55.3227C17.4226 41.0183 27.8466 28.6291 40.7286 19.2015C53.6105 9.77396 68.5721 3.58495 84.3496 1.15719C100.127 -1.27057 116.257 0.134238 131.377 5.25296C146.498 10.3717 160.164 19.054 171.222 30.5665C181.13 40.8816 188.684 53.1974 193.389 66.6631C194.295 69.2563 192.776 72.0264 190.14 72.8018C187.505 73.5773 184.753 72.0637 183.833 69.4755C179.587 57.5395 172.85 46.6214 164.048 37.4578C154.096 27.0965 141.796 19.2824 128.188 14.6755C114.579 10.0687 100.062 8.80437 85.8625 10.9894C71.6628 13.1743 58.1974 18.7444 46.6036 27.2292C35.0098 35.714 25.6282 46.8643 19.2511 59.7383C12.874 72.6123 9.68877 86.8319 9.96435 101.196C10.2399 115.56 13.9683 129.647 20.8345 142.267C26.907 153.429 35.2763 163.152 45.3694 170.809C47.558 172.469 48.1685 175.549 46.6324 177.827Z" fill="url(#paint0_linear_502_8159)"/>
<defs>
<linearGradient id="paint0_linear_502_8159" x1="99.4788" y1="-9.62943e-06" x2="18.8896" y2="162.685" gradientUnits="userSpaceOnUse">
<stop stop-color="#BE04FD"/>
<stop offset="0.562704" stop-color="#FF8F00"/>
<stop offset="0.949927" stop-color="#00C2FF"/>
</linearGradient>
</defs>
</svg>
