<svg width="301" height="308" viewBox="0 0 301 308" fill="none" xmlns="http://www.w3.org/2000/svg">
<g filter="url(#filter0_di_502_7779)">
<circle cx="150.499" cy="126.294" r="110.262" fill="url(#paint0_linear_502_7779)" shape-rendering="crispEdges"/>
<circle cx="150.499" cy="126.294" r="110.762" stroke="url(#paint1_linear_502_7779)" shape-rendering="crispEdges"/>
</g>
<g filter="url(#filter1_d_502_7779)">
<path d="M270.702 126.294C270.702 59.9078 216.885 6.0909 150.499 6.0909C84.1124 6.0909 30.2955 59.9078 30.2955 126.294" stroke="#BAC4CF" stroke-width="10" stroke-dasharray="2 19"/>
</g>
<path opacity="0.8" d="M97.6847 204.593C96.1495 206.869 93.0515 207.48 90.8551 205.833C79.4502 197.281 70.0015 186.363 63.1702 173.807C55.5459 159.794 51.4059 144.151 51.0999 128.201C50.7939 112.251 54.3308 96.4614 61.412 82.1659C68.4932 67.8705 78.9107 55.4891 91.7846 46.0674C104.658 36.6458 119.611 30.4607 135.378 28.0344C151.146 25.6082 167.266 27.0121 182.376 32.1276C197.487 37.2431 211.145 45.92 222.196 57.4253C232.098 67.7339 239.647 80.042 244.349 93.4992C245.255 96.0908 243.736 98.8591 241.102 99.6341C238.469 100.409 235.719 98.8964 234.799 96.3099C230.556 84.3813 223.823 73.4701 215.027 64.3122C205.08 53.9574 192.788 46.1482 179.189 41.5443C165.589 36.9403 151.081 35.6768 136.89 37.8604C122.699 40.044 109.242 45.6106 97.6559 54.0901C86.0694 62.5696 76.6937 73.7128 70.3206 86.5788C63.9475 99.4447 60.7643 113.655 61.0397 128.011C61.3151 142.366 65.0411 156.444 71.903 169.056C77.9717 180.21 86.3357 189.928 96.4225 197.579C98.6097 199.239 99.2198 202.317 97.6847 204.593Z" fill="url(#paint2_linear_502_7779)"/>
<g opacity="0.8" filter="url(#filter2_ddi_502_7779)">
<circle cx="150.5" cy="126.294" r="90.3785" fill="url(#paint3_linear_502_7779)"/>
<circle cx="150.5" cy="126.294" r="89.8785" stroke="url(#paint4_linear_502_7779)"/>
</g>
<circle cx="150.499" cy="126.294" r="77.7255" fill="url(#paint5_linear_502_7779)"/>
<circle cx="170.382" cy="64.8368" r="7.23028" fill="url(#paint6_linear_502_7779)"/>
<g clip-path="url(#clip0_502_7779)">
<g filter="url(#filter3_i_502_7779)">
<path d="M153.542 -862.789C151.594 -862.789 149.863 -863.294 148.348 -864.304C146.833 -865.338 145.642 -866.805 144.777 -868.705C143.911 -870.629 143.478 -872.938 143.478 -875.631C143.478 -878.325 143.911 -880.621 144.777 -882.521C145.642 -884.445 146.833 -885.912 148.348 -886.922C149.863 -887.956 151.594 -888.473 153.542 -888.473C155.49 -888.473 157.222 -887.956 158.737 -886.922C160.252 -885.912 161.442 -884.445 162.308 -882.521C163.198 -880.621 163.643 -878.325 163.643 -875.631C163.643 -872.938 163.198 -870.629 162.308 -868.705C161.442 -866.805 160.252 -865.338 158.737 -864.304C157.222 -863.294 155.49 -862.789 153.542 -862.789ZM153.542 -865.17C155.033 -865.17 156.332 -865.567 157.438 -866.36C158.544 -867.178 159.41 -868.357 160.035 -869.896C160.661 -871.459 160.973 -873.371 160.973 -875.631C160.973 -877.892 160.661 -879.792 160.035 -881.331C159.41 -882.894 158.544 -884.072 157.438 -884.866C156.332 -885.683 155.033 -886.092 153.542 -886.092C152.099 -886.092 150.813 -885.683 149.682 -884.866C148.552 -884.072 147.674 -882.894 147.049 -881.331C146.424 -879.792 146.111 -877.892 146.111 -875.631C146.111 -873.371 146.424 -871.459 147.049 -869.896C147.674 -868.357 148.552 -867.178 149.682 -866.36C150.813 -865.567 152.099 -865.17 153.542 -865.17ZM153.304 -817.915V-842.083L154.458 -840.857H147.352V-843.166H155.901V-817.915H153.304ZM144.7 -772.824V-774.663L155.197 -784.944C156.159 -785.882 156.88 -786.7 157.361 -787.397C157.842 -788.119 158.167 -788.792 158.335 -789.417C158.504 -790.042 158.588 -790.632 158.588 -791.185C158.588 -792.652 158.083 -793.806 157.073 -794.648C156.087 -795.489 154.62 -795.91 152.672 -795.91C151.181 -795.91 149.858 -795.682 148.704 -795.225C147.574 -794.768 146.6 -794.059 145.782 -793.097L143.942 -794.684C144.928 -795.838 146.191 -796.728 147.73 -797.353C149.269 -797.978 150.989 -798.291 152.888 -798.291C154.596 -798.291 156.075 -798.015 157.325 -797.461C158.576 -796.932 159.538 -796.151 160.211 -795.117C160.909 -794.083 161.257 -792.868 161.257 -791.473C161.257 -790.656 161.137 -789.85 160.897 -789.056C160.68 -788.263 160.271 -787.421 159.67 -786.531C159.093 -785.666 158.239 -784.68 157.109 -783.573L147.478 -774.122L146.756 -775.132H162.412V-772.824H144.7ZM152.779 -727.516C150.951 -727.516 149.219 -727.805 147.584 -728.382C145.973 -728.983 144.674 -729.777 143.688 -730.763L144.951 -732.819C145.768 -731.977 146.863 -731.28 148.233 -730.727C149.628 -730.174 151.143 -729.897 152.779 -729.897C154.871 -729.897 156.47 -730.354 157.576 -731.268C158.706 -732.182 159.272 -733.408 159.272 -734.947C159.272 -736.486 158.719 -737.713 157.612 -738.627C156.53 -739.541 154.811 -739.997 152.454 -739.997H150.65V-741.909L158.442 -751.685L158.803 -750.675H144.734V-752.984H160.967V-751.144L153.175 -741.368L151.913 -742.198H152.887C155.917 -742.198 158.177 -741.525 159.668 -740.178C161.183 -738.831 161.941 -737.1 161.941 -734.983C161.941 -733.565 161.604 -732.29 160.931 -731.16C160.258 -730.029 159.236 -729.14 157.865 -728.49C156.518 -727.841 154.823 -727.516 152.779 -727.516ZM143.063 -689.279V-691.155L156.446 -707.893H159.332L146.057 -691.155L144.65 -691.588H164.959V-689.279H143.063ZM157.311 -682.642V-689.279L157.384 -691.588V-697.432H159.909V-682.642H157.311ZM153.176 -637.334C151.373 -637.334 149.653 -637.623 148.018 -638.2C146.382 -638.801 145.084 -639.595 144.122 -640.581L145.384 -642.637C146.178 -641.795 147.26 -641.098 148.631 -640.545C150.026 -639.992 151.529 -639.715 153.14 -639.715C155.28 -639.715 156.904 -640.184 158.01 -641.122C159.14 -642.084 159.705 -643.334 159.705 -644.874C159.705 -645.956 159.441 -646.882 158.912 -647.651C158.407 -648.445 157.541 -649.058 156.315 -649.491C155.088 -649.924 153.405 -650.14 151.264 -650.14H145.889L147.188 -662.802H161.004V-660.493H148.234L149.569 -661.756L148.451 -651.15L147.116 -652.449H151.841C154.391 -652.449 156.435 -652.136 157.974 -651.511C159.513 -650.886 160.619 -650.008 161.293 -648.878C161.99 -647.771 162.339 -646.473 162.339 -644.982C162.339 -643.563 162.002 -642.264 161.329 -641.086C160.655 -639.932 159.645 -639.018 158.299 -638.344C156.952 -637.671 155.244 -637.334 153.176 -637.334ZM154.782 -592.243C152.545 -592.243 150.658 -592.736 149.119 -593.722C147.579 -594.732 146.413 -596.175 145.619 -598.051C144.826 -599.951 144.429 -602.223 144.429 -604.869C144.429 -607.731 144.91 -610.123 145.872 -612.047C146.858 -613.995 148.217 -615.462 149.948 -616.448C151.68 -617.434 153.688 -617.927 155.972 -617.927C157.103 -617.927 158.185 -617.819 159.219 -617.602C160.253 -617.386 161.167 -617.037 161.96 -616.556L160.914 -614.464C160.265 -614.897 159.52 -615.198 158.678 -615.366C157.836 -615.558 156.946 -615.655 156.008 -615.655C153.291 -615.655 151.115 -614.789 149.479 -613.057C147.868 -611.326 147.062 -608.741 147.062 -605.302C147.062 -604.773 147.086 -604.111 147.135 -603.318C147.207 -602.548 147.351 -601.779 147.567 -601.009L146.666 -601.694C146.93 -602.945 147.447 -604.003 148.217 -604.869C148.986 -605.759 149.948 -606.432 151.103 -606.889C152.257 -607.346 153.519 -607.574 154.89 -607.574C156.574 -607.574 158.053 -607.262 159.327 -606.636C160.602 -606.011 161.6 -605.133 162.321 -604.003C163.043 -602.873 163.403 -601.538 163.403 -599.999C163.403 -598.436 163.031 -597.065 162.285 -595.887C161.54 -594.732 160.506 -593.831 159.183 -593.181C157.884 -592.556 156.417 -592.243 154.782 -592.243ZM154.674 -594.444C155.876 -594.444 156.934 -594.66 157.848 -595.093C158.786 -595.55 159.52 -596.187 160.049 -597.005C160.578 -597.847 160.842 -598.821 160.842 -599.927C160.842 -601.586 160.265 -602.909 159.111 -603.895C157.98 -604.881 156.441 -605.374 154.493 -605.374C153.195 -605.374 152.064 -605.133 151.103 -604.652C150.141 -604.171 149.383 -603.51 148.83 -602.668C148.277 -601.851 148 -600.913 148 -599.855C148 -598.941 148.253 -598.063 148.758 -597.221C149.263 -596.404 150.008 -595.73 150.994 -595.201C152.004 -594.696 153.231 -594.444 154.674 -594.444ZM149.236 -547.369L160.13 -571.465L160.924 -570.311H145.304L146.639 -571.574V-565.586H144.078V-572.62H162.619V-570.78L152.05 -547.369H149.236ZM153.514 -502.061C151.494 -502.061 149.75 -502.35 148.283 -502.927C146.84 -503.504 145.722 -504.334 144.928 -505.416C144.159 -506.522 143.774 -507.821 143.774 -509.312C143.774 -510.755 144.147 -511.981 144.892 -512.991C145.662 -514.025 146.768 -514.819 148.211 -515.372C149.678 -515.925 151.445 -516.202 153.514 -516.202C155.558 -516.202 157.313 -515.925 158.78 -515.372C160.247 -514.819 161.365 -514.025 162.135 -512.991C162.929 -511.981 163.325 -510.755 163.325 -509.312C163.325 -507.821 162.929 -506.522 162.135 -505.416C161.341 -504.334 160.211 -503.504 158.744 -502.927C157.277 -502.35 155.534 -502.061 153.514 -502.061ZM153.514 -504.262C155.75 -504.262 157.494 -504.719 158.744 -505.633C160.019 -506.546 160.656 -507.785 160.656 -509.348C160.656 -510.911 160.019 -512.138 158.744 -513.027C157.494 -513.941 155.75 -514.398 153.514 -514.398C151.277 -514.398 149.534 -513.941 148.283 -513.027C147.033 -512.138 146.407 -510.911 146.407 -509.348C146.407 -507.785 147.033 -506.546 148.283 -505.633C149.534 -504.719 151.277 -504.262 153.514 -504.262ZM153.514 -514.723C151.638 -514.723 150.039 -514.975 148.716 -515.48C147.417 -515.985 146.419 -516.707 145.722 -517.645C145.025 -518.607 144.676 -519.749 144.676 -521.072C144.676 -522.467 145.037 -523.657 145.758 -524.643C146.504 -525.653 147.538 -526.422 148.86 -526.952C150.183 -527.481 151.734 -527.745 153.514 -527.745C155.293 -527.745 156.844 -527.481 158.167 -526.952C159.514 -526.422 160.56 -525.653 161.305 -524.643C162.051 -523.657 162.424 -522.467 162.424 -521.072C162.424 -519.749 162.075 -518.607 161.378 -517.645C160.68 -516.707 159.658 -515.985 158.311 -515.48C156.989 -514.975 155.389 -514.723 153.514 -514.723ZM153.514 -516.454C155.486 -516.454 157.025 -516.863 158.131 -517.681C159.237 -518.498 159.79 -519.593 159.79 -520.963C159.79 -522.406 159.213 -523.525 158.059 -524.318C156.929 -525.136 155.413 -525.545 153.514 -525.545C151.614 -525.545 150.099 -525.136 148.968 -524.318C147.838 -523.525 147.273 -522.418 147.273 -521C147.273 -519.605 147.814 -518.498 148.896 -517.681C150.003 -516.863 151.542 -516.454 153.514 -516.454ZM152.293 -482.654C154.529 -482.654 156.417 -482.149 157.956 -481.139C159.495 -480.153 160.662 -478.722 161.455 -476.846C162.249 -474.971 162.646 -472.698 162.646 -470.029C162.646 -467.191 162.153 -464.798 161.167 -462.85C160.205 -460.902 158.858 -459.435 157.127 -458.449C155.395 -457.463 153.387 -456.97 151.103 -456.97C149.972 -456.97 148.89 -457.079 147.856 -457.295C146.846 -457.511 145.932 -457.86 145.114 -458.341L146.161 -460.433C146.81 -460 147.555 -459.688 148.397 -459.495C149.263 -459.327 150.153 -459.243 151.066 -459.243C153.784 -459.243 155.948 -460.109 157.56 -461.84C159.195 -463.572 160.013 -466.157 160.013 -469.596C160.013 -470.149 159.976 -470.81 159.904 -471.58C159.856 -472.349 159.724 -473.119 159.508 -473.888L160.409 -473.203C160.169 -471.953 159.652 -470.882 158.858 -469.993C158.089 -469.127 157.127 -468.466 155.972 -468.009C154.842 -467.552 153.58 -467.323 152.185 -467.323C150.525 -467.323 149.046 -467.636 147.748 -468.261C146.473 -468.886 145.475 -469.764 144.754 -470.894C144.032 -472.025 143.672 -473.359 143.672 -474.899C143.672 -476.486 144.044 -477.856 144.79 -479.011C145.535 -480.165 146.557 -481.055 147.856 -481.68C149.179 -482.33 150.658 -482.654 152.293 -482.654ZM152.401 -480.454C151.199 -480.454 150.129 -480.225 149.191 -479.768C148.277 -479.335 147.555 -478.71 147.026 -477.893C146.497 -477.075 146.233 -476.101 146.233 -474.971C146.233 -473.311 146.798 -471.989 147.928 -471.003C149.082 -470.017 150.634 -469.524 152.582 -469.524C153.88 -469.524 155.01 -469.764 155.972 -470.245C156.958 -470.726 157.716 -471.387 158.245 -472.229C158.798 -473.071 159.075 -474.009 159.075 -475.043C159.075 -475.981 158.822 -476.858 158.317 -477.676C157.812 -478.494 157.067 -479.155 156.081 -479.66C155.095 -480.189 153.868 -480.454 152.401 -480.454ZM141.166 -412.096V-436.265L142.321 -435.038H135.214V-437.347H143.764V-412.096H141.166ZM160.255 -411.879C158.307 -411.879 156.575 -412.384 155.06 -413.394C153.545 -414.428 152.355 -415.895 151.489 -417.795C150.623 -419.719 150.19 -422.028 150.19 -424.721C150.19 -427.415 150.623 -429.711 151.489 -431.611C152.355 -433.535 153.545 -435.002 155.06 -436.012C156.575 -437.046 158.307 -437.563 160.255 -437.563C162.203 -437.563 163.934 -437.046 165.449 -436.012C166.964 -435.002 168.155 -433.535 169.02 -431.611C169.91 -429.711 170.355 -427.415 170.355 -424.721C170.355 -422.028 169.91 -419.719 169.02 -417.795C168.155 -415.895 166.964 -414.428 165.449 -413.394C163.934 -412.384 162.203 -411.879 160.255 -411.879ZM160.255 -414.26C161.746 -414.26 163.044 -414.657 164.151 -415.451C165.257 -416.268 166.123 -417.447 166.748 -418.986C167.373 -420.549 167.686 -422.461 167.686 -424.721C167.686 -426.982 167.373 -428.882 166.748 -430.421C166.123 -431.984 165.257 -433.162 164.151 -433.956C163.044 -434.774 161.746 -435.182 160.255 -435.182C158.812 -435.182 157.525 -434.774 156.395 -433.956C155.265 -433.162 154.387 -431.984 153.762 -430.421C153.136 -428.882 152.824 -426.982 152.824 -424.721C152.824 -422.461 153.136 -420.549 153.762 -418.986C154.387 -417.447 155.265 -416.268 156.395 -415.451C157.525 -414.657 158.812 -414.26 160.255 -414.26ZM146.591 -367.005V-391.174L147.746 -389.947H140.639V-392.256H149.189V-367.005H146.591ZM160.016 -367.005V-391.174L161.171 -389.947H154.064V-392.256H162.614V-367.005H160.016ZM142.857 -321.914V-346.083L144.012 -344.856H136.905V-347.165H145.455V-321.914H142.857ZM151.412 -321.914V-323.753L161.91 -334.034C162.871 -334.972 163.593 -335.79 164.074 -336.487C164.555 -337.209 164.88 -337.882 165.048 -338.507C165.216 -339.133 165.3 -339.722 165.3 -340.275C165.3 -341.742 164.795 -342.896 163.785 -343.738C162.799 -344.58 161.332 -345 159.384 -345C157.893 -345 156.571 -344.772 155.416 -344.315C154.286 -343.858 153.312 -343.149 152.495 -342.187L150.655 -343.774C151.641 -344.928 152.903 -345.818 154.442 -346.443C155.982 -347.069 157.701 -347.381 159.601 -347.381C161.308 -347.381 162.787 -347.105 164.038 -346.552C165.288 -346.022 166.25 -345.241 166.924 -344.207C167.621 -343.173 167.97 -341.958 167.97 -340.563C167.97 -339.746 167.85 -338.94 167.609 -338.147C167.393 -337.353 166.984 -336.511 166.383 -335.621C165.805 -334.756 164.952 -333.77 163.821 -332.663L154.19 -323.212L153.469 -324.222H169.124V-321.914H151.412ZM142.928 -276.823V-300.992L144.082 -299.765H136.976V-302.074H145.525V-276.823H142.928ZM159.491 -276.606C157.663 -276.606 155.932 -276.895 154.296 -277.472C152.685 -278.073 151.387 -278.867 150.401 -279.853L151.663 -281.909C152.481 -281.067 153.575 -280.37 154.946 -279.817C156.341 -279.264 157.856 -278.987 159.491 -278.987C161.583 -278.987 163.182 -279.444 164.289 -280.358C165.419 -281.272 165.984 -282.498 165.984 -284.037C165.984 -285.576 165.431 -286.803 164.325 -287.717C163.243 -288.631 161.523 -289.088 159.166 -289.088H157.363V-290.999L165.154 -300.775L165.515 -299.765H151.447V-302.074H167.68V-300.234L159.888 -290.458L158.625 -291.288H159.599C162.629 -291.288 164.89 -290.615 166.381 -289.268C167.896 -287.921 168.653 -286.19 168.653 -284.073C168.653 -282.655 168.317 -281.38 167.643 -280.25C166.97 -279.119 165.948 -278.23 164.577 -277.58C163.231 -276.931 161.535 -276.606 159.491 -276.606ZM141.184 -231.732V-255.901L142.338 -254.674H135.232V-256.983H143.781V-231.732H141.184ZM149.775 -238.369V-240.245L163.158 -256.983H166.044L152.769 -240.245L151.362 -240.678H171.671V-238.369H149.775ZM164.024 -231.732V-238.369L164.096 -240.678V-246.522H166.621V-231.732H164.024ZM142.893 -186.641V-210.81L144.047 -209.583H136.941V-211.892H145.49V-186.641H142.893ZM159.889 -186.424C158.085 -186.424 156.366 -186.713 154.73 -187.29C153.095 -187.891 151.796 -188.685 150.834 -189.671L152.097 -191.727C152.891 -190.885 153.973 -190.188 155.343 -189.635C156.738 -189.082 158.241 -188.805 159.853 -188.805C161.993 -188.805 163.616 -189.274 164.722 -190.212C165.853 -191.174 166.418 -192.424 166.418 -193.964C166.418 -195.046 166.153 -195.972 165.624 -196.741C165.119 -197.535 164.253 -198.148 163.027 -198.581C161.8 -199.014 160.117 -199.23 157.977 -199.23H152.602L153.901 -211.892H167.716V-209.583H154.947L156.281 -210.846L155.163 -200.24L153.828 -201.539H158.554C161.103 -201.539 163.147 -201.226 164.686 -200.601C166.225 -199.976 167.332 -199.098 168.005 -197.968C168.702 -196.861 169.051 -195.563 169.051 -194.072C169.051 -192.653 168.714 -191.354 168.041 -190.176C167.368 -189.022 166.358 -188.108 165.011 -187.434C163.664 -186.761 161.957 -186.424 159.889 -186.424ZM142.118 -141.55V-165.719L143.272 -164.492H136.166V-166.801H144.715V-141.55H142.118ZM161.494 -141.333C159.258 -141.333 157.37 -141.826 155.831 -142.812C154.292 -143.822 153.126 -145.265 152.332 -147.141C151.538 -149.041 151.142 -151.314 151.142 -153.959C151.142 -156.821 151.623 -159.213 152.584 -161.137C153.57 -163.085 154.929 -164.552 156.661 -165.538C158.392 -166.524 160.4 -167.017 162.685 -167.017C163.815 -167.017 164.897 -166.909 165.931 -166.693C166.965 -166.476 167.879 -166.127 168.673 -165.646L167.627 -163.554C166.977 -163.987 166.232 -164.288 165.39 -164.456C164.549 -164.648 163.659 -164.745 162.721 -164.745C160.003 -164.745 157.827 -163.879 156.192 -162.147C154.58 -160.416 153.775 -157.831 153.775 -154.392C153.775 -153.863 153.799 -153.201 153.847 -152.408C153.919 -151.638 154.063 -150.869 154.28 -150.099L153.378 -150.784C153.643 -152.035 154.16 -153.093 154.929 -153.959C155.699 -154.849 156.661 -155.522 157.815 -155.979C158.969 -156.436 160.232 -156.664 161.603 -156.664C163.286 -156.664 164.765 -156.352 166.04 -155.726C167.314 -155.101 168.312 -154.223 169.034 -153.093C169.755 -151.963 170.116 -150.628 170.116 -149.089C170.116 -147.526 169.743 -146.155 168.998 -144.977C168.252 -143.822 167.218 -142.921 165.895 -142.271C164.597 -141.646 163.13 -141.333 161.494 -141.333ZM161.386 -143.534C162.589 -143.534 163.647 -143.75 164.561 -144.183C165.499 -144.64 166.232 -145.277 166.761 -146.095C167.29 -146.937 167.555 -147.911 167.555 -149.017C167.555 -150.676 166.977 -151.999 165.823 -152.985C164.693 -153.971 163.154 -154.464 161.206 -154.464C159.907 -154.464 158.777 -154.223 157.815 -153.742C156.853 -153.261 156.096 -152.6 155.542 -151.758C154.989 -150.941 154.713 -150.003 154.713 -148.945C154.713 -148.031 154.965 -147.153 155.47 -146.311C155.975 -145.494 156.721 -144.82 157.707 -144.291C158.717 -143.786 159.943 -143.534 161.386 -143.534ZM142.487 -96.4588V-120.628L143.642 -119.401H136.535V-121.71H145.085V-96.4588H142.487ZM155.948 -96.4588L166.842 -120.555L167.636 -119.401H152.016L153.351 -120.664V-114.676H150.79V-121.71H169.331V-119.87L158.762 -96.4588H155.948ZM141.607 -51.3678V-75.5366L142.761 -74.3101H135.655V-76.6188H144.204V-51.3678H141.607ZM160.226 -51.1514C158.206 -51.1514 156.463 -51.44 154.996 -52.0171C153.553 -52.5943 152.434 -53.424 151.641 -54.5062C150.871 -55.6124 150.486 -56.911 150.486 -58.402C150.486 -59.8449 150.859 -61.0714 151.605 -62.0814C152.374 -63.1155 153.48 -63.9091 154.923 -64.4622C156.39 -65.0154 158.158 -65.2919 160.226 -65.2919C162.27 -65.2919 164.026 -65.0154 165.493 -64.4622C166.96 -63.9091 168.078 -63.1155 168.848 -62.0814C169.641 -61.0714 170.038 -59.8449 170.038 -58.402C170.038 -56.911 169.641 -55.6124 168.848 -54.5062C168.054 -53.424 166.924 -52.5943 165.457 -52.0171C163.99 -51.44 162.246 -51.1514 160.226 -51.1514ZM160.226 -53.3518C162.463 -53.3518 164.206 -53.8087 165.457 -54.7226C166.731 -55.6364 167.369 -56.8749 167.369 -58.4381C167.369 -60.0012 166.731 -61.2277 165.457 -62.1175C164.206 -63.0314 162.463 -63.4883 160.226 -63.4883C157.99 -63.4883 156.246 -63.0314 154.996 -62.1175C153.745 -61.2277 153.12 -60.0012 153.12 -58.4381C153.12 -56.8749 153.745 -55.6364 154.996 -54.7226C156.246 -53.8087 157.99 -53.3518 160.226 -53.3518ZM160.226 -63.8129C158.35 -63.8129 156.751 -64.0654 155.428 -64.5705C154.13 -65.0755 153.132 -65.7969 152.434 -66.7348C151.737 -67.6968 151.388 -68.8391 151.388 -70.1617C151.388 -71.5566 151.749 -72.747 152.47 -73.733C153.216 -74.743 154.25 -75.5125 155.573 -76.0416C156.895 -76.5707 158.447 -76.8352 160.226 -76.8352C162.006 -76.8352 163.557 -76.5707 164.879 -76.0416C166.226 -75.5125 167.272 -74.743 168.018 -73.733C168.763 -72.747 169.136 -71.5566 169.136 -70.1617C169.136 -68.8391 168.787 -67.6968 168.09 -66.7348C167.393 -65.7969 166.371 -65.0755 165.024 -64.5705C163.701 -64.0654 162.102 -63.8129 160.226 -63.8129ZM160.226 -65.5444C162.198 -65.5444 163.737 -65.9533 164.843 -66.7709C165.95 -67.5886 166.503 -68.6828 166.503 -70.0535C166.503 -71.4964 165.926 -72.6147 164.771 -73.4083C163.641 -74.226 162.126 -74.6348 160.226 -74.6348C158.326 -74.6348 156.811 -74.226 155.681 -73.4083C154.551 -72.6147 153.986 -71.5085 153.986 -70.0896C153.986 -68.6948 154.527 -67.5886 155.609 -66.7709C156.715 -65.9533 158.254 -65.5444 160.226 -65.5444ZM142.118 -6.27683V-30.4456L143.272 -29.2191H136.166V-31.5278H144.715V-6.27683H142.118ZM159.005 -31.7442C161.242 -31.7442 163.13 -31.2392 164.669 -30.2292C166.208 -29.2432 167.374 -27.8123 168.168 -25.9365C168.961 -24.0607 169.358 -21.7881 169.358 -19.1187C169.358 -16.281 168.865 -13.8882 167.879 -11.9403C166.917 -9.99232 165.571 -8.52536 163.839 -7.53937C162.108 -6.55338 160.1 -6.06039 157.815 -6.06039C156.685 -6.06039 155.603 -6.16861 154.568 -6.38505C153.558 -6.60148 152.645 -6.95019 151.827 -7.43116L152.873 -9.52338C153.522 -9.09051 154.268 -8.77787 155.11 -8.58549C155.975 -8.41715 156.865 -8.33298 157.779 -8.33298C160.496 -8.33298 162.661 -9.19872 164.272 -10.9302C165.907 -12.6617 166.725 -15.2469 166.725 -18.6859C166.725 -19.239 166.689 -19.9003 166.617 -20.6699C166.569 -21.4394 166.436 -22.209 166.22 -22.9785L167.122 -22.2931C166.881 -21.0426 166.364 -19.9725 165.571 -19.0827C164.801 -18.2169 163.839 -17.5556 162.685 -17.0987C161.555 -16.6417 160.292 -16.4133 158.897 -16.4133C157.238 -16.4133 155.759 -16.7259 154.46 -17.3512C153.186 -17.9764 152.188 -18.8542 151.466 -19.9845C150.745 -21.1148 150.384 -22.4495 150.384 -23.9886C150.384 -25.5758 150.757 -26.9465 151.502 -28.1009C152.248 -29.2552 153.27 -30.145 154.568 -30.7703C155.891 -31.4196 157.37 -31.7442 159.005 -31.7442ZM159.114 -29.5438C157.911 -29.5438 156.841 -29.3153 155.903 -28.8584C154.989 -28.4255 154.268 -27.8003 153.739 -26.9826C153.21 -26.165 152.945 -25.191 152.945 -24.0607C152.945 -22.4014 153.51 -21.0787 154.641 -20.0927C155.795 -19.1067 157.346 -18.6137 159.294 -18.6137C160.593 -18.6137 161.723 -18.8542 162.685 -19.3352C163.671 -19.8162 164.428 -20.4775 164.957 -21.3192C165.511 -22.1609 165.787 -23.0988 165.787 -24.1329C165.787 -25.0708 165.535 -25.9485 165.03 -26.7662C164.525 -27.5838 163.779 -28.2452 162.793 -28.7502C161.807 -29.2792 160.581 -29.5438 159.114 -29.5438ZM132.598 38.8142V36.9745L143.095 26.6937C144.057 25.7558 144.778 24.9382 145.259 24.2408C145.74 23.5193 146.065 22.8459 146.233 22.2207C146.402 21.5954 146.486 21.0062 146.486 20.4531C146.486 18.9862 145.981 17.8318 144.971 16.9901C143.985 16.1484 142.518 15.7276 140.57 15.7276C139.079 15.7276 137.756 15.956 136.602 16.413C135.471 16.8699 134.498 17.5793 133.68 18.5413L131.84 16.9541C132.826 15.7997 134.089 14.9099 135.628 14.2847C137.167 13.6594 138.886 13.3468 140.786 13.3468C142.494 13.3468 143.973 13.6233 145.223 14.1764C146.474 14.7055 147.436 15.4871 148.109 16.5212C148.806 17.5553 149.155 18.7697 149.155 20.1645C149.155 20.9822 149.035 21.7878 148.794 22.5814C148.578 23.375 148.169 24.2167 147.568 25.1065C146.991 25.9723 146.137 26.9582 145.007 28.0645L135.375 37.5155L134.654 36.5055H150.309V38.8142H132.598ZM163.954 39.0306C162.006 39.0306 160.274 38.5256 158.759 37.5155C157.244 36.4815 156.054 35.0145 155.188 33.1147C154.322 31.1908 153.889 28.8821 153.889 26.1887C153.889 23.4953 154.322 21.1986 155.188 19.2988C156.054 17.3749 157.244 15.9079 158.759 14.8979C160.274 13.8638 162.006 13.3468 163.954 13.3468C165.902 13.3468 167.633 13.8638 169.148 14.8979C170.663 15.9079 171.854 17.3749 172.719 19.2988C173.609 21.1986 174.054 23.4953 174.054 26.1887C174.054 28.8821 173.609 31.1908 172.719 33.1147C171.854 35.0145 170.663 36.4815 169.148 37.5155C167.633 38.5256 165.902 39.0306 163.954 39.0306ZM163.954 36.6498C165.445 36.6498 166.743 36.253 167.849 35.4594C168.956 34.6417 169.821 33.4634 170.447 31.9243C171.072 30.3611 171.385 28.4493 171.385 26.1887C171.385 23.9281 171.072 22.0283 170.447 20.4892C169.821 18.926 168.956 17.7477 167.849 16.9541C166.743 16.1364 165.445 15.7276 163.954 15.7276C162.511 15.7276 161.224 16.1364 160.094 16.9541C158.964 17.7477 158.086 18.926 157.46 20.4892C156.835 22.0283 156.523 23.9281 156.523 26.1887C156.523 28.4493 156.835 30.3611 157.46 31.9243C158.086 33.4634 158.964 34.6417 160.094 35.4594C161.224 36.253 162.511 36.6498 163.954 36.6498ZM133.003 83.9052V82.0654L143.5 71.7847C144.462 70.8468 145.183 70.0292 145.664 69.3318C146.145 68.6103 146.47 67.9369 146.638 67.3117C146.807 66.6864 146.891 66.0972 146.891 65.5441C146.891 64.0771 146.386 62.9228 145.376 62.0811C144.39 61.2394 142.923 60.8186 140.975 60.8186C139.484 60.8186 138.161 61.047 137.007 61.504C135.877 61.9609 134.903 62.6703 134.085 63.6322L132.245 62.045C133.231 60.8907 134.494 60.0009 136.033 59.3757C137.572 58.7504 139.291 58.4378 141.191 58.4378C142.899 58.4378 144.378 58.7143 145.628 59.2674C146.879 59.7965 147.841 60.5781 148.514 61.6122C149.212 62.6463 149.56 63.8607 149.56 65.2555C149.56 66.0732 149.44 66.8788 149.199 67.6724C148.983 68.466 148.574 69.3077 147.973 70.1975C147.396 71.0632 146.542 72.0492 145.412 73.1555L135.78 82.6065L135.059 81.5965H150.715V83.9052H133.003ZM163.96 84.1216C161.94 84.1216 160.197 83.833 158.73 83.2559C157.287 82.6787 156.168 81.849 155.375 80.7668C154.605 79.6606 154.221 78.362 154.221 76.871C154.221 75.4281 154.593 74.2016 155.339 73.1915C156.108 72.1575 157.215 71.3639 158.658 70.8107C160.124 70.2576 161.892 69.9811 163.96 69.9811C166.004 69.9811 167.76 70.2576 169.227 70.8107C170.694 71.3639 171.812 72.1575 172.582 73.1915C173.375 74.2016 173.772 75.4281 173.772 76.871C173.772 78.362 173.375 79.6606 172.582 80.7668C171.788 81.849 170.658 82.6787 169.191 83.2559C167.724 83.833 165.98 84.1216 163.96 84.1216ZM163.96 81.9212C166.197 81.9212 167.94 81.4642 169.191 80.5504C170.465 79.6365 171.103 78.398 171.103 76.8349C171.103 75.2717 170.465 74.0453 169.191 73.1555C167.94 72.2416 166.197 71.7847 163.96 71.7847C161.724 71.7847 159.98 72.2416 158.73 73.1555C157.479 74.0453 156.854 75.2717 156.854 76.8349C156.854 78.398 157.479 79.6365 158.73 80.5504C159.98 81.4642 161.724 81.9212 163.96 81.9212ZM163.96 71.46C162.084 71.46 160.485 71.2075 159.163 70.7025C157.864 70.1975 156.866 69.476 156.168 68.5381C155.471 67.5762 155.122 66.4339 155.122 65.1112C155.122 63.7164 155.483 62.526 156.205 61.54C156.95 60.53 157.984 59.7604 159.307 59.2314C160.629 58.7023 162.181 58.4378 163.96 58.4378C165.74 58.4378 167.291 58.7023 168.614 59.2314C169.96 59.7604 171.006 60.53 171.752 61.54C172.497 62.526 172.87 63.7164 172.87 65.1112C172.87 66.4339 172.521 67.5762 171.824 68.5381C171.127 69.476 170.105 70.1975 168.758 70.7025C167.435 71.2075 165.836 71.46 163.96 71.46ZM163.96 69.7286C165.932 69.7286 167.471 69.3197 168.578 68.5021C169.684 67.6844 170.237 66.5902 170.237 65.2195C170.237 63.7765 169.66 62.6583 168.505 61.8647C167.375 61.047 165.86 60.6382 163.96 60.6382C162.06 60.6382 160.545 61.047 159.415 61.8647C158.285 62.6583 157.72 63.7645 157.72 65.1834C157.72 66.5782 158.261 67.6844 159.343 68.5021C160.449 69.3197 161.988 69.7286 163.96 69.7286ZM123.507 128.996V127.156L134.005 116.876C134.967 115.938 135.688 115.12 136.169 114.423C136.65 113.701 136.975 113.028 137.143 112.403C137.311 111.777 137.395 111.188 137.395 110.635C137.395 109.168 136.89 108.014 135.88 107.172C134.894 106.33 133.427 105.91 131.479 105.91C129.988 105.91 128.666 106.138 127.511 106.595C126.381 107.052 125.407 107.761 124.59 108.723L122.75 107.136C123.736 105.982 124.998 105.092 126.537 104.467C128.077 103.841 129.796 103.529 131.696 103.529C133.403 103.529 134.882 103.805 136.133 104.358C137.383 104.888 138.345 105.669 139.019 106.703C139.716 107.737 140.065 108.952 140.065 110.347C140.065 111.164 139.945 111.97 139.704 112.763C139.488 113.557 139.079 114.399 138.478 115.288C137.9 116.154 137.047 117.14 135.916 118.246L126.285 127.698L125.564 126.687H141.219V128.996H123.507ZM152.409 129.213C150.581 129.213 148.849 128.924 147.214 128.347C145.603 127.746 144.304 126.952 143.318 125.966L144.581 123.91C145.398 124.752 146.493 125.449 147.863 126.002C149.258 126.555 150.773 126.832 152.409 126.832C154.501 126.832 156.1 126.375 157.206 125.461C158.337 124.547 158.902 123.321 158.902 121.782C158.902 120.242 158.349 119.016 157.242 118.102C156.16 117.188 154.441 116.731 152.084 116.731H150.28V114.82L158.072 105.044L158.433 106.054H144.364V103.745H160.597V105.585L152.805 115.361L151.543 114.531H152.517C155.547 114.531 157.808 115.204 159.299 116.551C160.814 117.898 161.571 119.629 161.571 121.746C161.571 123.164 161.234 124.439 160.561 125.569C159.888 126.7 158.866 127.589 157.495 128.239C156.148 128.888 154.453 129.213 152.409 129.213ZM167.858 128.996V103.745H170.528V126.687H184.668V128.996H167.858Z" fill="#3C3C43" fill-opacity="0.18"/>
</g>
</g>
<path d="M108.061 92.6228L107.92 89.5365L115.275 81.9011H118.201L112.089 88.3942L110.646 89.9774L108.061 92.6228ZM105.736 95.9294V81.9011H108.341V95.9294H105.736ZM115.516 95.9294L110.145 89.5365L111.868 87.6327L118.562 95.9294H115.516ZM120.336 95.9294V81.9011H122.941V95.9294H120.336ZM129.581 95.9294V84.1056H124.932V81.9011H136.836V84.1056H132.186V95.9294H129.581ZM145.088 96.1298C144.02 96.1298 143.024 95.9561 142.102 95.6088C141.194 95.2481 140.399 94.747 139.717 94.1057C139.049 93.4511 138.528 92.6829 138.154 91.8011C137.78 90.9193 137.593 89.9574 137.593 88.9153C137.593 87.8732 137.78 86.9112 138.154 86.0294C138.528 85.1477 139.056 84.3861 139.738 83.7448C140.419 83.0902 141.214 82.5892 142.122 82.2418C143.031 81.8811 144.026 81.7007 145.108 81.7007C146.257 81.7007 147.306 81.9011 148.255 82.3019C149.203 82.6894 150.005 83.2705 150.66 84.0454L148.976 85.6286C148.468 85.0809 147.901 84.6734 147.273 84.4062C146.645 84.1256 145.963 83.9853 145.229 83.9853C144.494 83.9853 143.819 84.1056 143.205 84.3461C142.603 84.5865 142.076 84.9272 141.621 85.3681C141.18 85.809 140.833 86.3301 140.579 86.9313C140.339 87.5325 140.219 88.1938 140.219 88.9153C140.219 89.6367 140.339 90.2981 140.579 90.8993C140.833 91.5005 141.18 92.0215 141.621 92.4624C142.076 92.9033 142.603 93.244 143.205 93.4845C143.819 93.725 144.494 93.8452 145.229 93.8452C145.963 93.8452 146.645 93.7116 147.273 93.4444C147.901 93.1638 148.468 92.743 148.976 92.1819L150.66 93.7851C150.005 94.5466 149.203 95.1278 148.255 95.5286C147.306 95.9294 146.251 96.1298 145.088 96.1298ZM163.016 81.9011H165.621V95.9294H163.016V81.9011ZM155.761 95.9294H153.156V81.9011H155.761V95.9294ZM163.216 89.9173H155.541V87.6928H163.216V89.9173ZM171.785 87.7329H178.759V89.8772H171.785V87.7329ZM171.985 93.745H179.901V95.9294H169.38V81.9011H179.621V84.0855H171.985V93.745ZM182.806 95.9294V81.9011H184.95L193.748 92.7029H192.685V81.9011H195.271V95.9294H193.126L184.329 85.1276H185.391V95.9294H182.806Z" fill="#3C3C43" fill-opacity="0.6"/>
<g filter="url(#filter4_i_502_7779)">
<path d="M140.83 173.962C140.83 182.24 145.835 187.686 153.467 187.686C156.233 187.686 158.601 186.761 160.248 185.178C160.722 186.309 161.002 187.579 161.443 189C161.637 189.624 162.11 189.947 162.67 189.947C163.671 189.947 164.478 189.021 164.478 187.945C164.478 186.675 163.359 184.662 162.003 182.681C162.466 181.637 162.713 180.475 162.713 179.215C162.713 174.447 158.838 170.992 153.51 170.992C151.702 170.992 149.926 171.487 148.01 171.487C146.406 171.487 145.125 170.992 144.049 169.775C143.155 168.731 141.541 168.893 141.175 170.4C140.895 171.476 140.83 173.37 140.83 173.962ZM147.192 176.761C147.805 178.634 149.872 179.7 152.617 180.335C156.158 181.142 157.633 181.799 158.849 183.079C157.654 184.425 155.77 185.221 153.467 185.221C147.224 185.221 143.295 180.873 143.295 173.962C143.295 173.564 143.306 173.101 143.349 172.757C143.36 172.542 143.478 172.52 143.629 172.617C144.802 173.456 146.47 173.952 148.01 173.952C149.204 173.952 150.281 173.801 151.239 173.672C152.089 173.543 152.81 173.456 153.51 173.456C157.471 173.456 160.248 175.846 160.248 179.215C160.248 179.7 160.194 180.162 160.097 180.593C158.569 179.495 156.373 178.806 153.349 178.354C150.937 177.988 149.291 177.471 148.246 176.18C147.751 175.609 146.944 176.008 147.192 176.761Z" fill="#92E3A9"/>
</g>
<path d="M109.629 139.001L106.753 147.488L103.863 139.001H102.895L99.9633 147.446L97.1296 139.001H96.0634L99.3741 148.82H100.454L103.344 140.445L106.22 148.82H107.314L110.625 139.001H109.629ZM114.337 141.385C113.173 141.385 112.079 141.75 111.335 142.381L111.784 143.125C112.387 142.592 113.285 142.255 114.239 142.255C115.614 142.255 116.329 142.942 116.329 144.205V144.654H113.987C111.868 144.654 111.139 145.608 111.139 146.744C111.139 148.021 112.163 148.89 113.832 148.89C115.053 148.89 115.922 148.428 116.371 147.67V148.82H117.325V144.247C117.325 142.339 116.245 141.385 114.337 141.385ZM113.987 148.105C112.808 148.105 112.121 147.572 112.121 146.716C112.121 145.959 112.584 145.397 114.015 145.397H116.329V146.604C115.936 147.572 115.109 148.105 113.987 148.105ZM123.566 147.656C123.285 147.909 122.878 148.035 122.471 148.035C121.644 148.035 121.195 147.558 121.195 146.688V142.283H123.439V141.441H121.195V139.828H120.199V141.441H118.88V142.283H120.199V146.744C120.199 148.105 120.97 148.89 122.359 148.89C122.934 148.89 123.524 148.722 123.916 148.371L123.566 147.656ZM131.908 145.131C131.908 142.914 130.407 141.385 128.331 141.385C126.255 141.385 124.726 142.942 124.726 145.131C124.726 147.319 126.297 148.89 128.598 148.89C129.762 148.89 130.786 148.47 131.445 147.684L130.884 147.039C130.323 147.684 129.523 148.007 128.626 148.007C127.012 148.007 125.834 146.983 125.722 145.44H131.894C131.894 145.327 131.908 145.215 131.908 145.131ZM128.331 142.241C129.776 142.241 130.828 143.251 130.954 144.696H125.722C125.848 143.251 126.9 142.241 128.331 142.241ZM134.89 142.886V141.441H133.936V148.82H134.932V145.061C134.932 143.321 135.871 142.339 137.415 142.339C137.485 142.339 137.569 142.353 137.653 142.353V141.385C136.292 141.385 135.352 141.904 134.89 142.886ZM144.486 147.923V144.275H149.564V143.391H144.486V139.898H150.182V139.001H143.448V148.82H150.392V147.923H144.486ZM158.252 148.82L155.306 145.033L158.084 141.441H156.989L154.773 144.331L152.557 141.441H151.434L154.212 145.033L151.294 148.82H152.416L154.773 145.734L157.116 148.82H158.252ZM163.712 141.385C162.491 141.385 161.467 141.918 160.864 142.9V141.441H159.91V151.542H160.906V147.432C161.523 148.385 162.533 148.89 163.712 148.89C165.816 148.89 167.387 147.375 167.387 145.131C167.387 142.9 165.816 141.385 163.712 141.385ZM163.641 148.007C162.07 148.007 160.892 146.856 160.892 145.131C160.892 143.419 162.07 142.255 163.641 142.255C165.199 142.255 166.391 143.419 166.391 145.131C166.391 146.856 165.199 148.007 163.641 148.007ZM175.856 145.131C175.856 142.914 174.355 141.385 172.279 141.385C170.203 141.385 168.674 142.942 168.674 145.131C168.674 147.319 170.245 148.89 172.546 148.89C173.71 148.89 174.734 148.47 175.393 147.684L174.832 147.039C174.271 147.684 173.472 148.007 172.574 148.007C170.96 148.007 169.782 146.983 169.67 145.44H175.842C175.842 145.327 175.856 145.215 175.856 145.131ZM172.279 142.241C173.724 142.241 174.776 143.251 174.902 144.696H169.67C169.796 143.251 170.848 142.241 172.279 142.241ZM181.643 141.385C180.367 141.385 179.371 141.904 178.838 142.802V141.441H177.884V148.82H178.88V144.949C178.88 143.265 179.876 142.283 181.461 142.283C182.864 142.283 183.677 143.083 183.677 144.64V148.82H184.673V144.542C184.673 142.423 183.439 141.385 181.643 141.385ZM189.355 148.89C191.277 148.89 192.4 148.063 192.4 146.786C192.4 143.953 187.616 145.454 187.616 143.462C187.616 142.76 188.205 142.241 189.538 142.241C190.295 142.241 191.067 142.423 191.712 142.872L192.147 142.073C191.53 141.652 190.492 141.385 189.538 141.385C187.658 141.385 186.62 142.283 186.62 143.49C186.62 146.407 191.404 144.892 191.404 146.814C191.404 147.544 190.828 148.021 189.426 148.021C188.387 148.021 187.391 147.656 186.802 147.193L186.353 147.979C186.957 148.498 188.135 148.89 189.355 148.89ZM200.68 145.131C200.68 142.914 199.179 141.385 197.103 141.385C195.026 141.385 193.497 142.942 193.497 145.131C193.497 147.319 195.069 148.89 197.369 148.89C198.534 148.89 199.558 148.47 200.217 147.684L199.656 147.039C199.095 147.684 198.295 148.007 197.397 148.007C195.784 148.007 194.606 146.983 194.493 145.44H200.666C200.666 145.327 200.68 145.215 200.68 145.131ZM197.103 142.241C198.548 142.241 199.6 143.251 199.726 144.696H194.493C194.62 143.251 195.672 142.241 197.103 142.241Z" fill="#464A63"/>
<defs>
<filter id="filter0_di_502_7779" x="9.17476" y="0" width="282.649" height="282.649" filterUnits="userSpaceOnUse" color-interpolation-filters="sRGB">
<feFlood flood-opacity="0" result="BackgroundImageFix"/>
<feColorMatrix in="SourceAlpha" type="matrix" values="0 0 0 0 0 0 0 0 0 0 0 0 0 0 0 0 0 0 127 0" result="hardAlpha"/>
<feOffset dy="15"/>
<feGaussianBlur stdDeviation="15"/>
<feComposite in2="hardAlpha" operator="out"/>
<feColorMatrix type="matrix" values="0 0 0 0 0.682353 0 0 0 0 0.607843 0 0 0 0 0.682353 0 0 0 0.2 0"/>
<feBlend mode="normal" in2="BackgroundImageFix" result="effect1_dropShadow_502_7779"/>
<feBlend mode="normal" in="SourceGraphic" in2="effect1_dropShadow_502_7779" result="shape"/>
<feColorMatrix in="SourceAlpha" type="matrix" values="0 0 0 0 0 0 0 0 0 0 0 0 0 0 0 0 0 0 127 0" result="hardAlpha"/>
<feMorphology radius="1" operator="erode" in="SourceAlpha" result="effect2_innerShadow_502_7779"/>
<feOffset dy="3"/>
<feGaussianBlur stdDeviation="4"/>
<feComposite in2="hardAlpha" operator="arithmetic" k2="-1" k3="1"/>
<feColorMatrix type="matrix" values="0 0 0 0 0.254902 0 0 0 0 0.270588 0 0 0 0 0.364706 0 0 0 0.1 0"/>
<feBlend mode="normal" in2="shape" result="effect2_innerShadow_502_7779"/>
</filter>
<filter id="filter1_d_502_7779" x="25.2854" y="1.08079" width="250.427" height="126.216" filterUnits="userSpaceOnUse" color-interpolation-filters="sRGB">
<feFlood flood-opacity="0" result="BackgroundImageFix"/>
<feColorMatrix in="SourceAlpha" type="matrix" values="0 0 0 0 0 0 0 0 0 0 0 0 0 0 0 0 0 0 127 0" result="hardAlpha"/>
<feOffset dy="1"/>
<feComposite in2="hardAlpha" operator="out"/>
<feColorMatrix type="matrix" values="0 0 0 0 0.556863 0 0 0 0 0.607843 0 0 0 0 0.682353 0 0 0 0.5 0"/>
<feBlend mode="normal" in2="BackgroundImageFix" result="effect1_dropShadow_502_7779"/>
<feBlend mode="normal" in="SourceGraphic" in2="effect1_dropShadow_502_7779" result="shape"/>
</filter>
<filter id="filter2_ddi_502_7779" x="0" y="6.8571" width="301" height="301" filterUnits="userSpaceOnUse" color-interpolation-filters="sRGB">
<feFlood flood-opacity="0" result="BackgroundImageFix"/>
<feColorMatrix in="SourceAlpha" type="matrix" values="0 0 0 0 0 0 0 0 0 0 0 0 0 0 0 0 0 0 127 0" result="hardAlpha"/>
<feOffset dy="31"/>
<feGaussianBlur stdDeviation="30"/>
<feComposite in2="hardAlpha" operator="out"/>
<feColorMatrix type="matrix" values="0 0 0 0 0.556863 0 0 0 0 0.607843 0 0 0 0 0.682353 0 0 0 0.2 0"/>
<feBlend mode="normal" in2="BackgroundImageFix" result="effect1_dropShadow_502_7779"/>
<feColorMatrix in="SourceAlpha" type="matrix" values="0 0 0 0 0 0 0 0 0 0 0 0 0 0 0 0 0 0 127 0" result="hardAlpha"/>
<feOffset dy="8"/>
<feGaussianBlur stdDeviation="7.5"/>
<feComposite in2="hardAlpha" operator="out"/>
<feColorMatrix type="matrix" values="0 0 0 0 0.556863 0 0 0 0 0.607843 0 0 0 0 0.682353 0 0 0 0.5 0"/>
<feBlend mode="normal" in2="effect1_dropShadow_502_7779" result="effect2_dropShadow_502_7779"/>
<feBlend mode="normal" in="SourceGraphic" in2="effect2_dropShadow_502_7779" result="shape"/>
<feColorMatrix in="SourceAlpha" type="matrix" values="0 0 0 0 0 0 0 0 0 0 0 0 0 0 0 0 0 0 127 0" result="hardAlpha"/>
<feOffset dx="3" dy="3"/>
<feGaussianBlur stdDeviation="4"/>
<feComposite in2="hardAlpha" operator="arithmetic" k2="-1" k3="1"/>
<feColorMatrix type="matrix" values="0 0 0 0 1 0 0 0 0 1 0 0 0 0 1 0 0 0 0.5 0"/>
<feBlend mode="normal" in2="shape" result="effect3_innerShadow_502_7779"/>
</filter>
<filter id="filter3_i_502_7779" x="122.75" y="-888.473" width="61.9179" height="1019.19" filterUnits="userSpaceOnUse" color-interpolation-filters="sRGB">
<feFlood flood-opacity="0" result="BackgroundImageFix"/>
<feBlend mode="normal" in="SourceGraphic" in2="BackgroundImageFix" result="shape"/>
<feColorMatrix in="SourceAlpha" type="matrix" values="0 0 0 0 0 0 0 0 0 0 0 0 0 0 0 0 0 0 127 0" result="hardAlpha"/>
<feOffset dy="1.5"/>
<feGaussianBlur stdDeviation="0.75"/>
<feComposite in2="hardAlpha" operator="arithmetic" k2="-1" k3="1"/>
<feColorMatrix type="matrix" values="0 0 0 0 0.556863 0 0 0 0 0.607843 0 0 0 0 0.682353 0 0 0 0.25 0"/>
<feBlend mode="normal" in2="shape" result="effect1_innerShadow_502_7779"/>
</filter>
<filter id="filter4_i_502_7779" x="140.831" y="168.731" width="23.6473" height="22.7187" filterUnits="userSpaceOnUse" color-interpolation-filters="sRGB">
<feFlood flood-opacity="0" result="BackgroundImageFix"/>
<feBlend mode="normal" in="SourceGraphic" in2="BackgroundImageFix" result="shape"/>
<feColorMatrix in="SourceAlpha" type="matrix" values="0 0 0 0 0 0 0 0 0 0 0 0 0 0 0 0 0 0 127 0" result="hardAlpha"/>
<feOffset dy="1.5"/>
<feGaussianBlur stdDeviation="0.75"/>
<feComposite in2="hardAlpha" operator="arithmetic" k2="-1" k3="1"/>
<feColorMatrix type="matrix" values="0 0 0 0 0 0 0 0 0 0 0 0 0 0 0 0 0 0 0.6 0"/>
<feBlend mode="overlay" in2="shape" result="effect1_innerShadow_502_7779"/>
</filter>
<linearGradient id="paint0_linear_502_7779" x1="86.3901" y1="35.988" x2="184.1" y2="236.588" gradientUnits="userSpaceOnUse">
<stop stop-color="#DEE2E7"/>
<stop offset="0.968749" stop-color="#DBE0E7"/>
</linearGradient>
<linearGradient id="paint1_linear_502_7779" x1="83.9835" y1="31.7987" x2="190.201" y2="233.227" gradientUnits="userSpaceOnUse">
<stop stop-color="white" stop-opacity="0.5"/>
<stop offset="1" stop-color="#F6F1F1"/>
</linearGradient>
<linearGradient id="paint2_linear_502_7779" x1="150.498" y1="26.878" x2="69.9594" y2="189.461" gradientUnits="userSpaceOnUse">
<stop stop-color="#BE04FD"/>
<stop offset="0.562704" stop-color="#FF8F00"/>
<stop offset="0.949927" stop-color="#00C2FF"/>
</linearGradient>
<linearGradient id="paint3_linear_502_7779" x1="89.0779" y1="46.9366" x2="204.151" y2="216.745" gradientUnits="userSpaceOnUse">
<stop stop-color="#F5F5F9"/>
<stop offset="0.989583" stop-color="#E4E8EE"/>
</linearGradient>
<linearGradient id="paint4_linear_502_7779" x1="92.5802" y1="50.9392" x2="197.147" y2="203.537" gradientUnits="userSpaceOnUse">
<stop stop-color="white"/>
<stop offset="1" stop-color="#C0C5CD"/>
</linearGradient>
<linearGradient id="paint5_linear_502_7779" x1="109.072" y1="65.2159" x2="192.823" y2="193.582" gradientUnits="userSpaceOnUse">
<stop stop-color="#DDE1E7"/>
<stop offset="1" stop-color="#FAFBFC"/>
</linearGradient>
<linearGradient id="paint6_linear_502_7779" x1="166.844" y1="59.2624" x2="174.635" y2="71.2035" gradientUnits="userSpaceOnUse">
<stop stop-color="#DDE1E7"/>
<stop offset="1" stop-color="#FAFBFC"/>
</linearGradient>
<clipPath id="clip0_502_7779">
<rect width="55.9216" height="38.7843" fill="white" transform="translate(122.482 95.9294) scale(1.00202)"/>
</clipPath>
</defs>
</svg>
