<svg width="33" height="37" viewBox="0 0 33 37" fill="none" xmlns="http://www.w3.org/2000/svg">
<path fill-rule="evenodd" clip-rule="evenodd" d="M8.81813 0H24.1829C29.846 0 32.9992 3.26326 32.9992 8.85479V27.7927C32.9992 33.4759 29.846 36.6658 24.1829 36.6658H8.81813C3.24492 36.6658 0 33.4759 0 27.7927V8.85479C0 3.26326 3.24492 0 8.81813 0ZM9.31312 8.54307V8.52474H14.7928C15.583 8.52474 16.2246 9.16639 16.2246 9.95287C16.2246 10.7613 15.583 11.403 14.7928 11.403H9.31312C8.52297 11.403 7.88315 10.7613 7.88315 9.97303C7.88315 9.18472 8.52297 8.54307 9.31312 8.54307ZM9.31312 19.6897H23.6861C24.4744 19.6897 25.1161 19.048 25.1161 18.2597C25.1161 17.4714 24.4744 16.8279 23.6861 16.8279H9.31312C8.52297 16.8279 7.88315 17.4714 7.88315 18.2597C7.88315 19.048 8.52297 19.6897 9.31312 19.6897ZM9.31311 28.0676H23.6861C24.4176 27.9942 24.9694 27.3691 24.9694 26.6376C24.9694 25.8859 24.4176 25.2626 23.6861 25.1893H9.31311C8.76313 25.1343 8.23147 25.391 7.93814 25.8676C7.64482 26.3259 7.64482 26.9309 7.93814 27.4076C8.23147 27.8659 8.76313 28.1409 9.31311 28.0676Z" fill="#464A63"/>
</svg>
