<svg width="37" height="37" viewBox="0 0 37 37" fill="none" xmlns="http://www.w3.org/2000/svg">
<path fill-rule="evenodd" clip-rule="evenodd" d="M1.92773 33.9168C1.92773 33.2783 2.44541 32.7606 3.08398 32.7606H33.9173C34.5559 32.7606 35.0736 33.2783 35.0736 33.9168C35.0736 34.5554 34.5559 35.0731 33.9173 35.0731H3.08398C2.44541 35.0731 1.92773 34.5554 1.92773 33.9168Z" fill="#464A63"/>
<path fill-rule="evenodd" clip-rule="evenodd" d="M2.37241 19.1305C2.65305 18.9114 3.019 18.8338 3.36442 18.9201L9.53108 20.4618C10.0458 20.5905 10.4069 21.0529 10.4069 21.5835V29.2918C10.4069 29.9304 9.88923 30.4481 9.25065 30.4481H3.08398C2.44541 30.4481 1.92773 29.9304 1.92773 29.2918V20.0418C1.92773 19.6858 2.09177 19.3496 2.37241 19.1305ZM4.24023 21.5227V28.1356H8.0944V22.4863L4.24023 21.5227Z" fill="#464A63"/>
<path fill-rule="evenodd" clip-rule="evenodd" d="M22.1919 14.4333C22.5327 14.6439 22.7402 15.0161 22.7402 15.4168V29.2918C22.7402 29.9304 22.2226 30.4481 21.584 30.4481H15.4173C14.7787 30.4481 14.2611 29.9304 14.2611 29.2918V18.5002C14.2611 18.0622 14.5085 17.6618 14.9002 17.466L21.0669 14.3827C21.4253 14.2034 21.851 14.2226 22.1919 14.4333ZM16.5736 19.2148V28.1356H20.4277V17.2877L16.5736 19.2148Z" fill="#464A63"/>
<path fill-rule="evenodd" clip-rule="evenodd" d="M34.5252 8.2666C34.8661 8.47728 35.0736 8.84943 35.0736 9.25016V29.2918C35.0736 29.9304 34.5559 30.4481 33.9173 30.4481H27.7507C27.1121 30.4481 26.5944 29.9304 26.5944 29.2918V12.3335C26.5944 11.8955 26.8418 11.4952 27.2336 11.2993L33.4002 8.21598C33.7587 8.03677 34.1843 8.05592 34.5252 8.2666ZM28.9069 13.0481V28.1356H32.7611V11.121L28.9069 13.0481Z" fill="#464A63"/>
<path fill-rule="evenodd" clip-rule="evenodd" d="M25.053 3.0835C25.053 2.44492 25.5707 1.92725 26.2093 1.92725H33.9176C34.4538 1.92725 34.9197 2.29595 35.0429 2.81784C35.1661 3.33974 34.9143 3.87786 34.4347 4.11768L9.76802 16.451C9.52114 16.5744 9.23826 16.6055 8.97049 16.5386L2.80383 14.9969C2.18431 14.842 1.80765 14.2142 1.96253 13.5947C2.11741 12.9752 2.74518 12.5986 3.36469 12.7534L9.1164 14.1914L29.0196 4.23975H26.2093C25.5707 4.23975 25.053 3.72208 25.053 3.0835Z" fill="#464A63"/>
</svg>
