<svg width="21" height="23" viewBox="0 0 21 23" fill="none" xmlns="http://www.w3.org/2000/svg">
<path d="M8.01424 9.2102e-05C7.88178 -0.00170569 7.75028 0.0228318 7.62738 0.0722798C7.50447 0.121728 7.39262 0.195101 7.29831 0.288137C7.204 0.381174 7.12912 0.492021 7.078 0.61424C7.02689 0.736459 7.00057 0.867616 7.00057 1.00009H1.01424C0.881731 0.998218 0.750168 1.0227 0.6272 1.07211C0.504231 1.12153 0.39231 1.19489 0.297941 1.28793C0.203571 1.38098 0.128635 1.49185 0.077487 1.61411C0.0263393 1.73636 0 1.86757 0 2.00009C0 2.13262 0.0263393 2.26382 0.077487 2.38608C0.128635 2.50834 0.203571 2.61921 0.297941 2.71225C0.39231 2.8053 0.504231 2.87866 0.6272 2.92807C0.750168 2.97748 0.881731 3.00197 1.01424 3.00009H19.0142C19.1468 3.00197 19.2783 2.97748 19.4013 2.92807C19.5243 2.87866 19.6362 2.8053 19.7305 2.71225C19.8249 2.61921 19.8999 2.50834 19.951 2.38608C20.0021 2.26382 20.0285 2.13262 20.0285 2.00009C20.0285 1.86757 20.0021 1.73636 19.951 1.61411C19.8999 1.49185 19.8249 1.38098 19.7305 1.28793C19.6362 1.19489 19.5243 1.12153 19.4013 1.07211C19.2783 1.0227 19.1468 0.998218 19.0142 1.00009H13.0279C13.0279 0.867616 13.0016 0.736459 12.9505 0.61424C12.8994 0.492021 12.8245 0.381174 12.7302 0.288137C12.6359 0.195101 12.524 0.121728 12.4011 0.0722798C12.2782 0.0228318 12.1467 -0.00170569 12.0142 9.2102e-05H8.01424ZM1.01424 5.00009V21.0001C1.01424 22.1051 1.90924 23.0001 3.01424 23.0001H17.0142C18.1192 23.0001 19.0142 22.1051 19.0142 21.0001V5.00009H1.01424Z" fill="#464A63"/>
</svg>
