<svg width="30" height="30" viewBox="0 0 30 30" fill="none" xmlns="http://www.w3.org/2000/svg">
<path d="M20.6489 3.37923C20.5916 3.32163 20.4983 3.32163 20.4404 3.37923L3.38914 20.4083C3.33154 20.4656 3.33154 20.5586 3.38914 20.6158L9.15118 26.371C9.17998 26.3995 9.21778 26.4139 9.25558 26.4139C9.29308 26.4139 9.33088 26.3995 9.35968 26.371L26.4112 9.34167C26.4391 9.31407 26.4547 9.27687 26.4547 9.23757C26.4547 9.19827 26.4391 9.16107 26.4112 9.13347L20.6489 3.37923Z" fill="#464A63"/>
<path d="M28.9504 2.73597L27.0547 0.842691C26.5105 0.299397 25.7869 0 25.0171 0C24.2479 0 23.5241 0.299397 22.9802 0.842691L21.0845 2.73597C21.0566 2.76357 21.041 2.80077 21.041 2.84007C21.041 2.87907 21.0566 2.91627 21.0845 2.94387L26.8465 8.69841C26.8741 8.72601 26.9119 8.74161 26.9509 8.74161C26.9902 8.74161 27.0274 8.72601 27.0547 8.69841L28.9504 6.80513C29.4946 6.26153 29.7943 5.53914 29.7943 4.77025C29.7943 4.00196 29.4946 3.27957 28.9504 2.73597Z" fill="#464A63"/>
<path d="M3.00513 20.99C2.96853 20.9537 2.91633 20.9384 2.86593 20.9513C2.81583 20.9633 2.77593 21.0008 2.76063 21.0503L0.00665979 29.8088C-0.00984004 29.8622 0.00485981 29.9195 0.0447594 29.9582C0.0729591 29.9855 0.109859 29.9998 0.147358 29.9998C0.163558 29.9998 0.180358 29.9965 0.196558 29.9911L8.71257 26.9876C8.76027 26.9708 8.79597 26.9312 8.80707 26.8814C8.81817 26.8322 8.80347 26.7803 8.76747 26.7449L3.00513 20.99Z" fill="#464A63"/>
</svg>
