<svg width="301" height="247" viewBox="0 0 301 247" fill="none" xmlns="http://www.w3.org/2000/svg">
<g clip-path="url(#clip0_905_1482)">
<g filter="url(#filter0_d_905_1482)">
<path d="M150.696 236.556C211.592 236.556 260.958 187.19 260.958 126.294C260.958 65.3982 211.592 16.0322 150.696 16.0322C89.7996 16.0322 40.4336 65.3982 40.4336 126.294C40.4336 187.19 89.7996 236.556 150.696 236.556Z" fill="url(#paint0_linear_905_1482)"/>
<path d="M150.696 237.056C211.868 237.056 261.458 187.466 261.458 126.294C261.458 65.1221 211.868 15.5322 150.696 15.5322C89.5234 15.5322 39.9336 65.1221 39.9336 126.294C39.9336 187.466 89.5234 237.056 150.696 237.056Z" stroke="url(#paint1_linear_905_1482)"/>
</g>
<g filter="url(#filter1_d_905_1482)">
<path d="M270.899 126.294C270.899 59.9077 217.082 6.09082 150.696 6.09082C84.3091 6.09082 30.4922 59.9077 30.4922 126.294" stroke="#BAC4CF" stroke-width="10" stroke-dasharray="2 19"/>
</g>
<path opacity="0.8" d="M97.8824 204.593C96.3472 206.869 93.2492 207.48 91.0528 205.833C79.6479 197.281 70.1992 186.363 63.3679 173.807C55.7436 159.794 51.6036 144.151 51.2976 128.201C50.9916 112.251 54.5285 96.4614 61.6097 82.1659C68.6909 67.8705 79.1084 55.4891 91.9823 46.0674C104.856 36.6458 119.809 30.4607 135.576 28.0344C151.344 25.6082 167.464 27.0121 182.574 32.1276C197.685 37.2431 211.343 45.92 222.394 57.4253C232.296 67.7339 239.845 80.042 244.547 93.4992C245.453 96.0908 243.934 98.8591 241.3 99.6341C238.667 100.409 235.917 98.8964 234.997 96.3099C230.754 84.3813 224.021 73.4701 215.225 64.3122C205.278 53.9574 192.986 46.1482 179.387 41.5443C165.787 36.9403 151.279 35.6768 137.088 37.8604C122.897 40.044 109.44 45.6106 97.8536 54.0901C86.2671 62.5696 76.8914 73.7128 70.5183 86.5788C64.1452 99.4447 60.962 113.655 61.2374 128.011C61.5128 142.366 65.2388 156.444 72.1007 169.056C78.1694 180.21 86.5334 189.928 96.6202 197.579C98.8074 199.239 99.4175 202.317 97.8824 204.593Z" fill="url(#paint2_linear_905_1482)"/>
<g opacity="0.8" filter="url(#filter2_dd_905_1482)">
<path d="M150.697 216.673C200.612 216.673 241.075 176.209 241.075 126.294C241.075 76.3794 200.612 35.9155 150.697 35.9155C100.782 35.9155 60.3184 76.3794 60.3184 126.294C60.3184 176.209 100.782 216.673 150.697 216.673Z" fill="url(#paint3_linear_905_1482)"/>
<path d="M150.697 216.173C200.335 216.173 240.575 175.933 240.575 126.294C240.575 76.6555 200.335 36.4155 150.697 36.4155C101.058 36.4155 60.8184 76.6555 60.8184 126.294C60.8184 175.933 101.058 216.173 150.697 216.173Z" stroke="url(#paint4_linear_905_1482)"/>
</g>
<path d="M150.696 204.019C193.623 204.019 228.422 169.22 228.422 126.294C228.422 83.3672 193.623 48.5684 150.696 48.5684C107.77 48.5684 72.9707 83.3672 72.9707 126.294C72.9707 169.22 107.77 204.019 150.696 204.019Z" fill="url(#paint5_linear_905_1482)"/>
<path d="M170.58 72.067C174.573 72.067 177.81 68.8299 177.81 64.8367C177.81 60.8435 174.573 57.6064 170.58 57.6064C166.587 57.6064 163.35 60.8435 163.35 64.8367C163.35 68.8299 166.587 72.067 170.58 72.067Z" fill="url(#paint6_linear_905_1482)"/>
<g filter="url(#filter3_d_905_1482)">
<path d="M141.027 166.594C141.027 174.872 146.032 180.318 153.664 180.318C156.43 180.318 158.798 179.393 160.445 177.81C160.919 178.941 161.199 180.211 161.64 181.632C161.834 182.256 162.307 182.579 162.867 182.579C163.868 182.579 164.675 181.653 164.675 180.577C164.675 179.307 163.556 177.294 162.2 175.313C162.663 174.269 162.91 173.107 162.91 171.847C162.91 167.079 159.035 163.624 153.707 163.624C151.899 163.624 150.123 164.119 148.207 164.119C146.603 164.119 145.322 163.624 144.246 162.407C143.352 161.363 141.738 161.525 141.372 163.032C141.092 164.108 141.027 166.002 141.027 166.594ZM147.389 169.393C148.002 171.266 150.069 172.332 152.814 172.967C156.355 173.774 157.83 174.431 159.046 175.711C157.851 177.057 155.967 177.853 153.664 177.853C147.421 177.853 143.492 173.505 143.492 166.594C143.492 166.196 143.503 165.733 143.546 165.389C143.557 165.174 143.675 165.152 143.826 165.249C144.999 166.088 146.667 166.584 148.207 166.584C149.401 166.584 150.478 166.433 151.436 166.304C152.286 166.175 153.007 166.088 153.707 166.088C157.668 166.088 160.445 168.478 160.445 171.847C160.445 172.332 160.391 172.794 160.294 173.225C158.766 172.127 156.57 171.438 153.546 170.986C151.134 170.62 149.488 170.103 148.443 168.812C147.948 168.241 147.141 168.64 147.389 169.393Z" fill="#92E3A9"/>
</g>
<g filter="url(#filter4_i_905_1482)">
<path d="M111.566 116.821V115.138L121.169 105.733C122.049 104.875 122.709 104.127 123.149 103.489C123.589 102.829 123.886 102.213 124.04 101.641C124.194 101.069 124.271 100.53 124.271 100.024C124.271 98.6823 123.809 97.6263 122.885 96.8563C121.983 96.0863 120.641 95.7013 118.859 95.7013C117.495 95.7013 116.285 95.9103 115.229 96.3283C114.195 96.7463 113.304 97.3953 112.556 98.2753L110.873 96.8233C111.775 95.7673 112.93 94.9533 114.338 94.3813C115.746 93.8093 117.319 93.5233 119.057 93.5233C120.619 93.5233 121.972 93.7763 123.116 94.2823C124.26 94.7663 125.14 95.4813 125.756 96.4273C126.394 97.3733 126.713 98.4843 126.713 99.7603C126.713 100.508 126.603 101.245 126.383 101.971C126.185 102.697 125.811 103.467 125.261 104.281C124.733 105.073 123.952 105.975 122.918 106.987L114.107 115.633L113.447 114.709H127.769V116.821H111.566ZM139.919 117.019C138.071 117.019 136.476 116.755 135.134 116.227C133.814 115.699 132.791 114.94 132.065 113.95C131.361 112.938 131.009 111.75 131.009 110.386C131.009 109.066 131.35 107.944 132.032 107.02C132.736 106.074 133.748 105.348 135.068 104.842C136.41 104.336 138.027 104.083 139.919 104.083C141.789 104.083 143.395 104.336 144.737 104.842C146.079 105.348 147.102 106.074 147.806 107.02C148.532 107.944 148.895 109.066 148.895 110.386C148.895 111.75 148.532 112.938 147.806 113.95C147.08 114.94 146.046 115.699 144.704 116.227C143.362 116.755 141.767 117.019 139.919 117.019ZM139.919 115.006C141.965 115.006 143.56 114.588 144.704 113.752C145.87 112.916 146.453 111.783 146.453 110.353C146.453 108.923 145.87 107.801 144.704 106.987C143.56 106.151 141.965 105.733 139.919 105.733C137.873 105.733 136.278 106.151 135.134 106.987C133.99 107.801 133.418 108.923 133.418 110.353C133.418 111.783 133.99 112.916 135.134 113.752C136.278 114.588 137.873 115.006 139.919 115.006ZM139.919 105.436C138.203 105.436 136.74 105.205 135.53 104.743C134.342 104.281 133.429 103.621 132.791 102.763C132.153 101.883 131.834 100.838 131.834 99.6283C131.834 98.3523 132.164 97.2633 132.824 96.3613C133.506 95.4373 134.452 94.7333 135.662 94.2493C136.872 93.7653 138.291 93.5233 139.919 93.5233C141.547 93.5233 142.966 93.7653 144.176 94.2493C145.408 94.7333 146.365 95.4373 147.047 96.3613C147.729 97.2633 148.07 98.3523 148.07 99.6283C148.07 100.838 147.751 101.883 147.113 102.763C146.475 103.621 145.54 104.281 144.308 104.743C143.098 105.205 141.635 105.436 139.919 105.436ZM139.919 103.852C141.723 103.852 143.131 103.478 144.143 102.73C145.155 101.982 145.661 100.981 145.661 99.7273C145.661 98.4073 145.133 97.3843 144.077 96.6583C143.043 95.9103 141.657 95.5363 139.919 95.5363C138.181 95.5363 136.795 95.9103 135.761 96.6583C134.727 97.3843 134.21 98.3963 134.21 99.6943C134.21 100.97 134.705 101.982 135.695 102.73C136.707 103.478 138.115 103.852 139.919 103.852ZM157.947 102.73C156.847 102.73 155.868 102.51 155.01 102.07C154.152 101.608 153.47 100.981 152.964 100.189C152.48 99.3753 152.238 98.4623 152.238 97.4503C152.238 96.4163 152.48 95.5143 152.964 94.7443C153.47 93.9523 154.152 93.3363 155.01 92.8963C155.868 92.4343 156.847 92.2033 157.947 92.2033C159.047 92.2033 160.026 92.4343 160.884 92.8963C161.742 93.3363 162.413 93.9523 162.897 94.7443C163.403 95.5143 163.656 96.4163 163.656 97.4503C163.656 98.4623 163.403 99.3753 162.897 100.189C162.413 100.981 161.742 101.608 160.884 102.07C160.026 102.51 159.047 102.73 157.947 102.73ZM157.947 101.245C159.113 101.245 160.07 100.893 160.818 100.189C161.566 99.4853 161.94 98.5723 161.94 97.4503C161.94 96.3063 161.566 95.3933 160.818 94.7113C160.07 94.0073 159.113 93.6553 157.947 93.6553C156.781 93.6553 155.824 94.0073 155.076 94.7113C154.328 95.4153 153.954 96.3283 153.954 97.4503C153.954 98.5723 154.328 99.4853 155.076 100.189C155.824 100.893 156.781 101.245 157.947 101.245ZM178.964 117.019C177.226 117.019 175.62 116.733 174.146 116.161C172.672 115.567 171.396 114.742 170.318 113.686C169.24 112.63 168.393 111.387 167.777 109.957C167.183 108.527 166.886 106.965 166.886 105.271C166.886 103.577 167.183 102.015 167.777 100.585C168.393 99.1553 169.24 97.9123 170.318 96.8563C171.418 95.8003 172.705 94.9863 174.179 94.4143C175.653 93.8203 177.259 93.5233 178.997 93.5233C180.669 93.5233 182.242 93.8093 183.716 94.3813C185.19 94.9313 186.433 95.7673 187.445 96.8893L185.894 98.4403C184.948 97.4723 183.903 96.7793 182.759 96.3613C181.615 95.9213 180.383 95.7013 179.063 95.7013C177.677 95.7013 176.39 95.9433 175.202 96.4273C174.014 96.8893 172.98 97.5603 172.1 98.4403C171.22 99.2983 170.527 100.31 170.021 101.476C169.537 102.62 169.295 103.885 169.295 105.271C169.295 106.657 169.537 107.933 170.021 109.099C170.527 110.243 171.22 111.255 172.1 112.135C172.98 112.993 174.014 113.664 175.202 114.148C176.39 114.61 177.677 114.841 179.063 114.841C180.383 114.841 181.615 114.621 182.759 114.181C183.903 113.741 184.948 113.037 185.894 112.069L187.445 113.62C186.433 114.742 185.19 115.589 183.716 116.161C182.242 116.733 180.658 117.019 178.964 117.019Z" fill="#3C3C43" fill-opacity="0.18"/>
</g>
<path d="M86.7173 139.061H91.8973V139.943H86.7173V139.061ZM86.8293 143.583H92.7233V144.479H85.7933V134.679H92.5133V135.575H86.8293V143.583ZM94.9485 144.479V134.091H95.9425V144.479H94.9485ZM101.83 144.549C101.065 144.549 100.393 144.391 99.8143 144.073C99.2356 143.747 98.7829 143.303 98.4563 142.743C98.1296 142.174 97.9663 141.525 97.9663 140.797C97.9663 140.069 98.1203 139.425 98.4283 138.865C98.7456 138.305 99.1749 137.867 99.7163 137.549C100.267 137.223 100.883 137.059 101.564 137.059C102.255 137.059 102.866 137.218 103.398 137.535C103.94 137.843 104.364 138.282 104.672 138.851C104.98 139.411 105.134 140.06 105.134 140.797C105.134 140.844 105.13 140.895 105.12 140.951C105.12 140.998 105.12 141.049 105.12 141.105H98.7223V140.363H104.588L104.196 140.657C104.196 140.125 104.08 139.654 103.846 139.243C103.622 138.823 103.314 138.497 102.922 138.263C102.53 138.03 102.078 137.913 101.564 137.913C101.06 137.913 100.608 138.03 100.206 138.263C99.8049 138.497 99.4923 138.823 99.2683 139.243C99.0443 139.663 98.9323 140.144 98.9323 140.685V140.839C98.9323 141.399 99.0536 141.894 99.2963 142.323C99.5483 142.743 99.8936 143.075 100.332 143.317C100.78 143.551 101.289 143.667 101.858 143.667C102.306 143.667 102.722 143.588 103.104 143.429C103.496 143.271 103.832 143.028 104.112 142.701L104.672 143.345C104.346 143.737 103.935 144.036 103.44 144.241C102.955 144.447 102.418 144.549 101.83 144.549ZM110.209 144.549C109.481 144.549 108.828 144.391 108.249 144.073C107.68 143.747 107.232 143.303 106.905 142.743C106.579 142.174 106.415 141.525 106.415 140.797C106.415 140.06 106.579 139.411 106.905 138.851C107.232 138.291 107.68 137.853 108.249 137.535C108.828 137.218 109.481 137.059 110.209 137.059C110.835 137.059 111.399 137.181 111.903 137.423C112.407 137.666 112.804 138.03 113.093 138.515L112.351 139.019C112.099 138.646 111.787 138.371 111.413 138.193C111.04 138.016 110.634 137.927 110.195 137.927C109.673 137.927 109.201 138.049 108.781 138.291C108.361 138.525 108.03 138.856 107.787 139.285C107.545 139.715 107.423 140.219 107.423 140.797C107.423 141.376 107.545 141.88 107.787 142.309C108.03 142.739 108.361 143.075 108.781 143.317C109.201 143.551 109.673 143.667 110.195 143.667C110.634 143.667 111.04 143.579 111.413 143.401C111.787 143.224 112.099 142.953 112.351 142.589L113.093 143.093C112.804 143.569 112.407 143.933 111.903 144.185C111.399 144.428 110.835 144.549 110.209 144.549ZM117.452 144.549C116.762 144.549 116.23 144.363 115.856 143.989C115.483 143.616 115.296 143.089 115.296 142.407V135.505H116.29V142.351C116.29 142.781 116.398 143.112 116.612 143.345C116.836 143.579 117.154 143.695 117.564 143.695C118.003 143.695 118.367 143.569 118.656 143.317L119.006 144.031C118.81 144.209 118.572 144.339 118.292 144.423C118.022 144.507 117.742 144.549 117.452 144.549ZM113.98 137.955V137.129H118.53V137.955H113.98ZM120.816 144.479V137.129H121.768V139.131L121.67 138.781C121.875 138.221 122.22 137.797 122.706 137.507C123.191 137.209 123.793 137.059 124.512 137.059V138.025C124.474 138.025 124.437 138.025 124.4 138.025C124.362 138.016 124.325 138.011 124.288 138.011C123.513 138.011 122.906 138.249 122.468 138.725C122.029 139.192 121.81 139.859 121.81 140.727V144.479H120.816ZM126.325 144.479V137.129H127.319V144.479H126.325ZM126.829 135.505C126.624 135.505 126.451 135.435 126.311 135.295C126.171 135.155 126.101 134.987 126.101 134.791C126.101 134.595 126.171 134.432 126.311 134.301C126.451 134.161 126.624 134.091 126.829 134.091C127.035 134.091 127.207 134.157 127.347 134.287C127.487 134.418 127.557 134.581 127.557 134.777C127.557 134.983 127.487 135.155 127.347 135.295C127.217 135.435 127.044 135.505 126.829 135.505ZM133.137 144.549C132.409 144.549 131.756 144.391 131.177 144.073C130.608 143.747 130.16 143.303 129.833 142.743C129.507 142.174 129.343 141.525 129.343 140.797C129.343 140.06 129.507 139.411 129.833 138.851C130.16 138.291 130.608 137.853 131.177 137.535C131.756 137.218 132.409 137.059 133.137 137.059C133.763 137.059 134.327 137.181 134.831 137.423C135.335 137.666 135.732 138.03 136.021 138.515L135.279 139.019C135.027 138.646 134.715 138.371 134.341 138.193C133.968 138.016 133.562 137.927 133.123 137.927C132.601 137.927 132.129 138.049 131.709 138.291C131.289 138.525 130.958 138.856 130.715 139.285C130.473 139.715 130.351 140.219 130.351 140.797C130.351 141.376 130.473 141.88 130.715 142.309C130.958 142.739 131.289 143.075 131.709 143.317C132.129 143.551 132.601 143.667 133.123 143.667C133.562 143.667 133.968 143.579 134.341 143.401C134.715 143.224 135.027 142.953 135.279 142.589L136.021 143.093C135.732 143.569 135.335 143.933 134.831 144.185C134.327 144.428 133.763 144.549 133.137 144.549ZM137.865 144.479V137.129H138.859V144.479H137.865ZM138.369 135.505C138.163 135.505 137.991 135.435 137.851 135.295C137.711 135.155 137.641 134.987 137.641 134.791C137.641 134.595 137.711 134.432 137.851 134.301C137.991 134.161 138.163 134.091 138.369 134.091C138.574 134.091 138.747 134.157 138.887 134.287C139.027 134.418 139.097 134.581 139.097 134.777C139.097 134.983 139.027 135.155 138.887 135.295C138.756 135.435 138.583 135.505 138.369 135.505ZM143.948 144.549C143.258 144.549 142.726 144.363 142.352 143.989C141.979 143.616 141.792 143.089 141.792 142.407V135.505H142.786V142.351C142.786 142.781 142.894 143.112 143.108 143.345C143.332 143.579 143.65 143.695 144.06 143.695C144.499 143.695 144.863 143.569 145.152 143.317L145.502 144.031C145.306 144.209 145.068 144.339 144.788 144.423C144.518 144.507 144.238 144.549 143.948 144.549ZM140.476 137.955V137.129H145.026V137.955H140.476ZM147.231 147.265C146.886 147.265 146.554 147.209 146.237 147.097C145.929 146.985 145.663 146.817 145.439 146.593L145.901 145.851C146.088 146.029 146.288 146.164 146.503 146.257C146.727 146.36 146.974 146.411 147.245 146.411C147.572 146.411 147.852 146.318 148.085 146.131C148.328 145.954 148.556 145.637 148.771 145.179L149.247 144.101L149.359 143.947L152.383 137.129H153.363L149.681 145.361C149.476 145.837 149.247 146.215 148.995 146.495C148.752 146.775 148.486 146.971 148.197 147.083C147.908 147.205 147.586 147.265 147.231 147.265ZM149.191 144.689L145.803 137.129H146.839L149.835 143.877L149.191 144.689ZM159.561 139.061H164.741V139.943H159.561V139.061ZM159.673 143.583H165.567V144.479H158.637V134.679H165.357V135.575H159.673V143.583ZM166.467 144.479L169.575 140.447L169.561 140.937L166.607 137.129H167.727L170.149 140.279L169.729 140.265L172.151 137.129H173.243L170.261 140.979L170.275 140.447L173.411 144.479H172.277L169.715 141.119L170.107 141.175L167.587 144.479H166.467ZM178.86 144.549C178.225 144.549 177.651 144.405 177.138 144.115C176.624 143.817 176.214 143.392 175.906 142.841C175.607 142.281 175.458 141.6 175.458 140.797C175.458 139.995 175.607 139.318 175.906 138.767C176.204 138.207 176.61 137.783 177.124 137.493C177.637 137.204 178.216 137.059 178.86 137.059C179.56 137.059 180.185 137.218 180.736 137.535C181.296 137.843 181.734 138.282 182.052 138.851C182.369 139.411 182.528 140.06 182.528 140.797C182.528 141.544 182.369 142.197 182.052 142.757C181.734 143.317 181.296 143.756 180.736 144.073C180.185 144.391 179.56 144.549 178.86 144.549ZM175.066 147.195V137.129H176.018V139.341L175.92 140.811L176.06 142.295V147.195H175.066ZM178.79 143.667C179.312 143.667 179.779 143.551 180.19 143.317C180.6 143.075 180.927 142.739 181.17 142.309C181.412 141.871 181.534 141.367 181.534 140.797C181.534 140.228 181.412 139.729 181.17 139.299C180.927 138.87 180.6 138.534 180.19 138.291C179.779 138.049 179.312 137.927 178.79 137.927C178.267 137.927 177.796 138.049 177.376 138.291C176.965 138.534 176.638 138.87 176.396 139.299C176.162 139.729 176.046 140.228 176.046 140.797C176.046 141.367 176.162 141.871 176.396 142.309C176.638 142.739 176.965 143.075 177.376 143.317C177.796 143.551 178.267 143.667 178.79 143.667ZM187.676 144.549C186.911 144.549 186.239 144.391 185.66 144.073C185.081 143.747 184.629 143.303 184.302 142.743C183.975 142.174 183.812 141.525 183.812 140.797C183.812 140.069 183.966 139.425 184.274 138.865C184.591 138.305 185.021 137.867 185.562 137.549C186.113 137.223 186.729 137.059 187.41 137.059C188.101 137.059 188.712 137.218 189.244 137.535C189.785 137.843 190.21 138.282 190.518 138.851C190.826 139.411 190.98 140.06 190.98 140.797C190.98 140.844 190.975 140.895 190.966 140.951C190.966 140.998 190.966 141.049 190.966 141.105H184.568V140.363H190.434L190.042 140.657C190.042 140.125 189.925 139.654 189.692 139.243C189.468 138.823 189.16 138.497 188.768 138.263C188.376 138.03 187.923 137.913 187.41 137.913C186.906 137.913 186.453 138.03 186.052 138.263C185.651 138.497 185.338 138.823 185.114 139.243C184.89 139.663 184.778 140.144 184.778 140.685V140.839C184.778 141.399 184.899 141.894 185.142 142.323C185.394 142.743 185.739 143.075 186.178 143.317C186.626 143.551 187.135 143.667 187.704 143.667C188.152 143.667 188.567 143.588 188.95 143.429C189.342 143.271 189.678 143.028 189.958 142.701L190.518 143.345C190.191 143.737 189.781 144.036 189.286 144.241C188.801 144.447 188.264 144.549 187.676 144.549ZM196.755 137.059C197.353 137.059 197.875 137.176 198.323 137.409C198.781 137.633 199.135 137.979 199.387 138.445C199.649 138.912 199.779 139.5 199.779 140.209V144.479H198.785V140.307C198.785 139.533 198.589 138.949 198.197 138.557C197.815 138.156 197.273 137.955 196.573 137.955C196.051 137.955 195.593 138.063 195.201 138.277C194.819 138.483 194.52 138.786 194.305 139.187C194.1 139.579 193.997 140.055 193.997 140.615V144.479H193.003V137.129H193.955V139.145L193.801 138.767C194.035 138.235 194.408 137.82 194.921 137.521C195.435 137.213 196.046 137.059 196.755 137.059ZM204.438 144.549C203.831 144.549 203.257 144.465 202.716 144.297C202.175 144.12 201.75 143.901 201.442 143.639L201.89 142.855C202.189 143.079 202.571 143.275 203.038 143.443C203.505 143.602 203.995 143.681 204.508 143.681C205.208 143.681 205.712 143.574 206.02 143.359C206.328 143.135 206.482 142.841 206.482 142.477C206.482 142.207 206.393 141.997 206.216 141.847C206.048 141.689 205.824 141.572 205.544 141.497C205.264 141.413 204.951 141.343 204.606 141.287C204.261 141.231 203.915 141.166 203.57 141.091C203.234 141.017 202.926 140.909 202.646 140.769C202.366 140.62 202.137 140.419 201.96 140.167C201.792 139.915 201.708 139.579 201.708 139.159C201.708 138.758 201.82 138.399 202.044 138.081C202.268 137.764 202.595 137.517 203.024 137.339C203.463 137.153 203.995 137.059 204.62 137.059C205.096 137.059 205.572 137.125 206.048 137.255C206.524 137.377 206.916 137.54 207.224 137.745L206.79 138.543C206.463 138.319 206.113 138.161 205.74 138.067C205.367 137.965 204.993 137.913 204.62 137.913C203.957 137.913 203.467 138.03 203.15 138.263C202.842 138.487 202.688 138.777 202.688 139.131C202.688 139.411 202.772 139.631 202.94 139.789C203.117 139.948 203.346 140.074 203.626 140.167C203.915 140.251 204.228 140.321 204.564 140.377C204.909 140.433 205.25 140.503 205.586 140.587C205.931 140.662 206.244 140.769 206.524 140.909C206.813 141.04 207.042 141.231 207.21 141.483C207.387 141.726 207.476 142.048 207.476 142.449C207.476 142.879 207.355 143.252 207.112 143.569C206.879 143.877 206.533 144.12 206.076 144.297C205.628 144.465 205.082 144.549 204.438 144.549ZM212.422 144.549C211.657 144.549 210.985 144.391 210.406 144.073C209.827 143.747 209.375 143.303 209.048 142.743C208.721 142.174 208.558 141.525 208.558 140.797C208.558 140.069 208.712 139.425 209.02 138.865C209.337 138.305 209.767 137.867 210.308 137.549C210.859 137.223 211.475 137.059 212.156 137.059C212.847 137.059 213.458 137.218 213.99 137.535C214.531 137.843 214.956 138.282 215.264 138.851C215.572 139.411 215.726 140.06 215.726 140.797C215.726 140.844 215.721 140.895 215.712 140.951C215.712 140.998 215.712 141.049 215.712 141.105H209.314V140.363H215.18L214.788 140.657C214.788 140.125 214.671 139.654 214.438 139.243C214.214 138.823 213.906 138.497 213.514 138.263C213.122 138.03 212.669 137.913 212.156 137.913C211.652 137.913 211.199 138.03 210.798 138.263C210.397 138.497 210.084 138.823 209.86 139.243C209.636 139.663 209.524 140.144 209.524 140.685V140.839C209.524 141.399 209.645 141.894 209.888 142.323C210.14 142.743 210.485 143.075 210.924 143.317C211.372 143.551 211.881 143.667 212.45 143.667C212.898 143.667 213.313 143.588 213.696 143.429C214.088 143.271 214.424 143.028 214.704 142.701L215.264 143.345C214.937 143.737 214.527 144.036 214.032 144.241C213.547 144.447 213.01 144.549 212.422 144.549Z" fill="#464A63"/>
</g>
<defs>
<filter id="filter0_d_905_1482" x="31.4336" y="10.0322" width="238.523" height="238.524" filterUnits="userSpaceOnUse" color-interpolation-filters="sRGB">
<feFlood flood-opacity="0" result="BackgroundImageFix"/>
<feColorMatrix in="SourceAlpha" type="matrix" values="0 0 0 0 0 0 0 0 0 0 0 0 0 0 0 0 0 0 127 0" result="hardAlpha"/>
<feOffset dy="3"/>
<feGaussianBlur stdDeviation="4"/>
<feComposite in2="hardAlpha" operator="out"/>
<feColorMatrix type="matrix" values="0 0 0 0 0.254902 0 0 0 0 0.270588 0 0 0 0 0.364706 0 0 0 0.1 0"/>
<feBlend mode="normal" in2="BackgroundImageFix" result="effect1_dropShadow_905_1482"/>
<feBlend mode="normal" in="SourceGraphic" in2="effect1_dropShadow_905_1482" result="shape"/>
</filter>
<filter id="filter1_d_905_1482" x="25.4922" y="1.09082" width="250.406" height="126.203" filterUnits="userSpaceOnUse" color-interpolation-filters="sRGB">
<feFlood flood-opacity="0" result="BackgroundImageFix"/>
<feColorMatrix in="SourceAlpha" type="matrix" values="0 0 0 0 0 0 0 0 0 0 0 0 0 0 0 0 0 0 127 0" result="hardAlpha"/>
<feOffset dy="1"/>
<feComposite in2="hardAlpha" operator="out"/>
<feColorMatrix type="matrix" values="0 0 0 0 0.556863 0 0 0 0 0.607843 0 0 0 0 0.682353 0 0 0 0.5 0"/>
<feBlend mode="normal" in2="BackgroundImageFix" result="effect1_dropShadow_905_1482"/>
<feBlend mode="normal" in="SourceGraphic" in2="effect1_dropShadow_905_1482" result="shape"/>
</filter>
<filter id="filter2_dd_905_1482" x="45.3184" y="28.9155" width="210.758" height="210.757" filterUnits="userSpaceOnUse" color-interpolation-filters="sRGB">
<feFlood flood-opacity="0" result="BackgroundImageFix"/>
<feColorMatrix in="SourceAlpha" type="matrix" values="0 0 0 0 0 0 0 0 0 0 0 0 0 0 0 0 0 0 127 0" result="hardAlpha"/>
<feOffset dy="8"/>
<feGaussianBlur stdDeviation="7.5"/>
<feComposite in2="hardAlpha" operator="out"/>
<feColorMatrix type="matrix" values="0 0 0 0 0.556863 0 0 0 0 0.607843 0 0 0 0 0.682353 0 0 0 0.5 0"/>
<feBlend mode="normal" in2="BackgroundImageFix" result="effect1_dropShadow_905_1482"/>
<feColorMatrix in="SourceAlpha" type="matrix" values="0 0 0 0 0 0 0 0 0 0 0 0 0 0 0 0 0 0 127 0" result="hardAlpha"/>
<feOffset dx="3" dy="3"/>
<feGaussianBlur stdDeviation="4"/>
<feComposite in2="hardAlpha" operator="out"/>
<feColorMatrix type="matrix" values="0 0 0 0 1 0 0 0 0 1 0 0 0 0 1 0 0 0 0.5 0"/>
<feBlend mode="normal" in2="effect1_dropShadow_905_1482" result="effect2_dropShadow_905_1482"/>
<feBlend mode="normal" in="SourceGraphic" in2="effect2_dropShadow_905_1482" result="shape"/>
</filter>
<filter id="filter3_d_905_1482" x="139.527" y="161.74" width="26.6484" height="23.8389" filterUnits="userSpaceOnUse" color-interpolation-filters="sRGB">
<feFlood flood-opacity="0" result="BackgroundImageFix"/>
<feColorMatrix in="SourceAlpha" type="matrix" values="0 0 0 0 0 0 0 0 0 0 0 0 0 0 0 0 0 0 127 0" result="hardAlpha"/>
<feOffset dy="1.5"/>
<feGaussianBlur stdDeviation="0.75"/>
<feComposite in2="hardAlpha" operator="out"/>
<feColorMatrix type="matrix" values="0 0 0 0 0 0 0 0 0 0 0 0 0 0 0 0 0 0 0.6 0"/>
<feBlend mode="overlay" in2="BackgroundImageFix" result="effect1_dropShadow_905_1482"/>
<feBlend mode="normal" in="SourceGraphic" in2="effect1_dropShadow_905_1482" result="shape"/>
</filter>
<filter id="filter4_i_905_1482" x="110.873" y="92.2031" width="76.5723" height="26.3164" filterUnits="userSpaceOnUse" color-interpolation-filters="sRGB">
<feFlood flood-opacity="0" result="BackgroundImageFix"/>
<feBlend mode="normal" in="SourceGraphic" in2="BackgroundImageFix" result="shape"/>
<feColorMatrix in="SourceAlpha" type="matrix" values="0 0 0 0 0 0 0 0 0 0 0 0 0 0 0 0 0 0 127 0" result="hardAlpha"/>
<feOffset dy="1.5"/>
<feGaussianBlur stdDeviation="0.75"/>
<feComposite in2="hardAlpha" operator="arithmetic" k2="-1" k3="1"/>
<feColorMatrix type="matrix" values="0 0 0 0 0.556863 0 0 0 0 0.607843 0 0 0 0 0.682353 0 0 0 0.25 0"/>
<feBlend mode="normal" in2="shape" result="effect1_innerShadow_905_1482"/>
</filter>
<linearGradient id="paint0_linear_905_1482" x1="86.5867" y1="35.9882" x2="184.297" y2="236.588" gradientUnits="userSpaceOnUse">
<stop stop-color="#DEE2E7"/>
<stop offset="0.968749" stop-color="#DBE0E7"/>
</linearGradient>
<linearGradient id="paint1_linear_905_1482" x1="84.1801" y1="31.7989" x2="190.398" y2="233.227" gradientUnits="userSpaceOnUse">
<stop stop-color="white" stop-opacity="0.5"/>
<stop offset="1" stop-color="#F6F1F1"/>
</linearGradient>
<linearGradient id="paint2_linear_905_1482" x1="150.696" y1="26.878" x2="70.1571" y2="189.461" gradientUnits="userSpaceOnUse">
<stop stop-color="#BE04FD"/>
<stop offset="0.562704" stop-color="#FF8F00"/>
<stop offset="0.949927" stop-color="#00C2FF"/>
</linearGradient>
<linearGradient id="paint3_linear_905_1482" x1="89.2748" y1="46.9366" x2="204.348" y2="216.745" gradientUnits="userSpaceOnUse">
<stop stop-color="#F5F5F9"/>
<stop offset="0.989583" stop-color="#E4E8EE"/>
</linearGradient>
<linearGradient id="paint4_linear_905_1482" x1="92.7771" y1="50.9392" x2="197.344" y2="203.537" gradientUnits="userSpaceOnUse">
<stop stop-color="white"/>
<stop offset="1" stop-color="#C0C5CD"/>
</linearGradient>
<linearGradient id="paint5_linear_905_1482" x1="109.269" y1="65.2158" x2="193.02" y2="193.582" gradientUnits="userSpaceOnUse">
<stop stop-color="#DDE1E7"/>
<stop offset="1" stop-color="#FAFBFC"/>
</linearGradient>
<linearGradient id="paint6_linear_905_1482" x1="167.042" y1="59.2623" x2="174.833" y2="71.2034" gradientUnits="userSpaceOnUse">
<stop stop-color="#DDE1E7"/>
<stop offset="1" stop-color="#FAFBFC"/>
</linearGradient>
<clipPath id="clip0_905_1482">
<rect width="301" height="247" fill="white"/>
</clipPath>
</defs>
</svg>
