<svg width="18" height="15" viewBox="0 0 18 15" fill="none" xmlns="http://www.w3.org/2000/svg">
<path d="M10.3468 13.9953L9.45497 14.7578C9.07734 15.0807 8.46669 15.0807 8.09307 14.7578L0.283227 8.08393C-0.0944091 7.76105 -0.0944091 7.23895 0.283227 6.91951L8.09307 0.242157C8.47071 -0.080719 9.08135 -0.080719 9.45497 0.242157L10.3468 1.00469C10.7285 1.33101 10.7205 1.86341 10.3308 2.18285L5.48979 6.12606H17.0358C17.5701 6.12606 18 6.49359 18 6.95042V8.04958C18 8.50641 17.5701 8.87394 17.0358 8.87394H5.48979L10.3308 12.8172C10.7245 13.1366 10.7325 13.669 10.3468 13.9953Z" fill="#464A63"/>
</svg>
