<svg width="34" height="44" viewBox="0 0 34 44" fill="none" xmlns="http://www.w3.org/2000/svg">
<path d="M30.4042 30.0908V19.2145C30.4042 12.5364 26.8368 6.9459 20.6155 5.46671V3.98752C20.6155 2.18204 19.1363 0.724609 17.3308 0.724609C15.5253 0.724609 14.0896 2.18204 14.0896 3.98752V5.46671C7.8466 6.9459 4.3009 12.5146 4.3009 19.2145V30.0908L1.47304 32.8969C0.102621 34.2674 1.05974 36.6167 2.99574 36.6167H31.6441C33.5801 36.6167 34.559 34.2674 33.1886 32.8969L30.4042 30.0908ZM17.3308 43.1425C19.7236 43.1425 21.6814 41.1847 21.6814 38.7919H12.9803C12.9803 41.1847 14.9162 43.1425 17.3308 43.1425Z" fill="#464A63"/>
</svg>
