<svg width="50" height="50" viewBox="0 0 50 50" fill="none" xmlns="http://www.w3.org/2000/svg">
<path d="M18.7006 38.1034H30.9023M24.8027 1.54785V4.15896M41.4198 8.43074L39.5738 10.2768M48.3027 25.0479H45.6916M3.91385 25.0479H1.30273M10.0317 10.2768L8.18562 8.43074M15.5698 34.2807C13.7443 32.4548 12.5013 30.1285 11.9978 27.596C11.4943 25.0636 11.7531 22.4387 12.7413 20.0533C13.7295 17.668 15.4029 15.6292 17.5498 14.1947C19.6967 12.7603 22.2207 11.9947 24.8027 11.9947C27.3847 11.9947 29.9088 12.7603 32.0557 14.1947C34.2026 15.6292 35.8759 17.668 36.8642 20.0533C37.8524 22.4387 38.1112 25.0636 37.6077 27.596C37.1042 30.1285 35.8611 32.4548 34.0356 34.2807L32.6047 35.709C31.7867 36.5272 31.1378 37.4985 30.6952 38.5675C30.2525 39.6365 30.0248 40.7821 30.025 41.9391V43.3256C30.025 44.7106 29.4748 46.0389 28.4954 47.0183C27.516 47.9977 26.1878 48.5479 24.8027 48.5479C23.4177 48.5479 22.0894 47.9977 21.1101 47.0183C20.1307 46.0389 19.5805 44.7106 19.5805 43.3256V41.9391C19.5805 39.6022 18.651 37.3592 17.0007 35.709L15.5698 34.2807Z" stroke="#464A63" stroke-width="2" stroke-linecap="round" stroke-linejoin="round"/>
</svg>
