<svg width="31" height="38" viewBox="0 0 31 38" fill="none" xmlns="http://www.w3.org/2000/svg">
<path d="M27.6982 17.2953L27.6982 17.2953C27.3342 17.7472 26.8482 17.9925 26.3505 17.9925H4.25501C3.75725 17.9925 3.27126 17.7472 2.90728 17.2953L2.90725 17.2953C2.54234 16.8426 2.3336 16.2227 2.3336 15.5711V5.28544C2.3336 4.6341 2.54233 4.0142 2.90724 3.56152L2.9073 3.56144C3.27131 3.1093 3.75728 2.86403 4.25501 2.86403H26.3505C26.8482 2.86403 27.3342 3.1093 27.6982 3.56144L27.6982 3.56151C28.0631 4.01424 28.2719 4.63412 28.2719 5.28544V15.5711C28.2719 16.2227 28.0631 16.8426 27.6982 17.2953ZM20.1362 22.2785H19.9862V22.4285V30.9994C19.9862 33.1824 20.9237 35.2125 22.4654 36.3175C24.0132 37.4269 25.9257 37.4269 27.4735 36.3175C29.015 35.2125 29.9527 33.1824 29.9527 30.9994C29.9527 30.4751 29.605 29.9929 29.1122 29.9929C28.6195 29.9929 28.2719 30.4757 28.2719 30.9998C28.2719 32.4917 27.6301 33.857 26.6082 34.5896C25.5924 35.3178 24.3466 35.3178 23.3307 34.5896L23.2529 34.6981L23.3307 34.5896C22.3086 33.857 21.6671 32.492 21.6671 31.0001V22.4285V22.2785H21.5171H20.1362ZM9.08862 22.2785H8.93862V22.4285V30.9994C8.93862 32.4913 8.29711 33.8565 7.27498 34.5891L7.36236 34.711L7.27497 34.5891C6.25913 35.3174 5.01332 35.3174 3.99748 34.5891C2.97557 33.8565 2.33383 32.4912 2.33383 30.9994C2.33383 30.4752 1.98625 29.9924 1.49352 29.9924C1.0006 29.9924 0.652971 30.4752 0.652971 30.9994C0.652971 33.1824 1.59065 35.213 3.13215 36.318L3.21954 36.1961L3.13216 36.318C4.67995 37.4273 6.5925 37.4273 8.14029 36.318C9.68203 35.213 10.6195 33.1832 10.6195 31.0001V22.4285V22.2785H10.4695H9.08862ZM14.6123 22.2782H14.4623V22.4282V29.2852C14.4623 29.8094 14.8101 30.2924 15.3029 30.2924C15.5375 30.2924 15.7541 30.1764 15.9079 29.9854C16.0611 29.7953 16.1432 29.543 16.1432 29.2852V22.4282V22.2782H15.9932H14.6123ZM26.3505 0.85H4.25501C3.28799 0.85 2.36882 1.32704 1.69714 2.16117C1.02591 2.99419 0.652734 4.11856 0.652734 5.28558V15.5712C0.652734 16.7385 1.02589 17.8627 1.69713 18.6959C2.36884 19.5298 3.28795 20.0071 4.25501 20.0071H26.3505C27.3175 20.0071 28.2367 19.5297 28.9083 18.6959C29.5796 17.8627 29.9527 16.7385 29.9527 15.5712V5.28558C29.9527 4.11859 29.5796 2.99415 28.9084 2.1612C28.2366 1.3271 27.3175 0.85 26.3505 0.85ZM25.5744 14.5571C25.7276 14.367 25.8099 14.1148 25.8099 13.8569C25.8099 13.599 25.7276 13.3468 25.5744 13.1567C25.4206 12.9657 25.204 12.8497 24.9694 12.8497H5.63658C5.1436 12.8497 4.79603 13.3328 4.79603 13.8569C4.79603 14.381 5.1436 14.8641 5.63658 14.8641H24.9694C25.204 14.8641 25.4206 14.7481 25.5744 14.5571Z" fill="#464A63" stroke="#464A63" stroke-width="0.3"/>
</svg>
