<svg width="190" height="189" viewBox="0 0 190 189" fill="none" xmlns="http://www.w3.org/2000/svg">
<path d="M39.5122 120.953V100.468C39.5122 96.5542 38.6909 91.8857 42.4639 89.3768C44.261 88.1833 46.05 86.9897 47.8552 85.7881C62.2645 76.1911 76.6819 66.6023 91.0911 57.0053C92.75 55.9011 95.4172 55.9011 97.076 57.0053C111.632 66.6916 126.187 76.386 140.735 86.0723C142.394 87.1765 144.053 88.2807 145.711 89.3849C149.574 91.9587 148.647 97.0739 148.647 101.101V120.953H170.708C173.579 112.663 175.14 103.764 175.14 94.5001C175.14 49.7954 138.848 13.5591 94.0755 13.5591C49.3026 13.5591 13.0193 49.7954 13.0193 94.5001C13.0193 103.764 14.5805 112.663 17.451 120.953H39.5122Z" fill="#464A63"/>
<path d="M54.7993 115.026L108.842 79.0493C103.923 75.7773 99.0029 72.4971 94.0833 69.225C79.8448 78.7002 65.6144 88.1754 51.3759 97.6587V126.872C51.3759 130.103 48.6762 132.799 45.4398 132.799H22.6468C28.0543 142.834 35.5273 151.595 44.4884 158.529L104.427 115.034H54.7993V115.026Z" fill="#464A63"/>
<path d="M142.718 132.799C139.482 132.799 136.782 130.103 136.782 126.872V97.6586C130.082 93.193 123.381 88.7356 116.681 84.2781L83.528 106.346H131.179L52.083 163.749C64.3292 171.17 78.706 175.441 94.0747 175.441C124.967 175.441 151.818 158.188 165.503 132.799H142.71H142.718Z" fill="#464A63"/>
<path d="M94.6442 188.992C42.4553 188.992 0 146.601 0 94.5001C0 42.3988 42.4553 0 94.6442 0C146.833 0 189.288 42.3907 189.288 94.5001C189.288 146.61 146.833 189 94.6442 189V188.992ZM94.6442 7.89192C46.8139 7.90004 7.91209 46.7426 7.91209 94.5001C7.91209 142.258 46.822 181.1 94.6442 181.1C142.466 181.1 181.376 142.249 181.376 94.5001C181.376 46.7507 142.466 7.90004 94.6442 7.90004V7.89192Z" fill="#464A63"/>
</svg>
