<svg width="33" height="35" viewBox="0 0 33 35" fill="none" xmlns="http://www.w3.org/2000/svg">
<path fill-rule="evenodd" clip-rule="evenodd" d="M18.8619 23.0059C20.8001 23.0059 22.3777 24.5722 22.3777 26.4975V31.4492C22.3777 31.8629 22.7093 32.1946 23.1343 32.2042H26.2025C28.6204 32.2042 30.586 30.2628 30.586 27.8771V13.8333C30.5747 13.0123 30.1835 12.2396 29.5122 11.7261L18.8989 3.26183C17.4743 2.13337 15.4813 2.13337 14.0518 3.26505L3.51095 11.7229C2.81391 12.2525 2.42273 13.0252 2.41468 13.8607V27.8771C2.41468 30.2628 4.38023 32.2042 6.79813 32.2042H9.89537C10.3316 32.2042 10.6858 31.8581 10.6858 31.4331C10.6858 31.3398 10.697 31.2464 10.7164 31.1579V26.4975C10.7164 24.5835 12.2843 23.0188 14.208 23.0059H18.8619ZM26.2025 34.6189H23.1053C21.3313 34.577 19.963 33.1846 19.963 31.4492V26.4975C19.963 25.9035 19.4688 25.4206 18.8619 25.4206H14.216C13.622 25.4238 13.131 25.9083 13.131 26.4975V31.4331C13.131 31.5539 13.1149 31.6698 13.0811 31.7792C12.9073 33.3729 11.5454 34.6189 9.89537 34.6189H6.79813C3.04894 34.6189 0 31.5941 0 27.8771V13.8494C0.0160979 12.2493 0.753381 10.7844 2.02672 9.82011L12.5467 1.37677C14.8632 -0.458387 18.0908 -0.458387 20.4025 1.37355L30.9981 9.82494C32.2424 10.7731 32.9797 12.2348 33.0007 13.8156V27.8771C33.0007 31.5941 29.9517 34.6189 26.2025 34.6189Z" fill="#FF8A00"/>
</svg>
